<svg width="16" height="31" viewBox="0 0 16 31" fill="none" xmlns="http://www.w3.org/2000/svg">
<path fill-rule="evenodd" clip-rule="evenodd" d="M16 4.85724C15.9999 5.01771 15.9266 5.16975 15.8008 5.26935L8.32617 11.1854C8.13508 11.3365 7.86492 11.3365 7.67383 11.1854L0.199219 5.26935C0.0733814 5.16974 0.000115395 5.01772 0 4.85724V0.525211C6.77109e-05 0.323747 0.11553 0.140313 0.296875 0.0525546C0.478186 -0.0351528 0.693573 -0.0118149 0.851562 0.113101L8 5.7713L15.1484 0.113101C15.3064 -0.0118241 15.5218 -0.0351479 15.7031 0.0525546C15.8845 0.14031 15.9999 0.323753 16 0.525211V4.85724ZM16 14.5154C15.9999 14.6759 15.9266 14.828 15.8008 14.9276L8.32617 20.8436C8.13508 20.9947 7.86492 20.9947 7.67383 20.8436L0.199219 14.9276C0.0733767 14.8279 0.000109673 14.6759 0 14.5154L0 10.1834C6.77109e-05 9.98195 0.11553 9.79852 0.296875 9.71076C0.478186 9.62305 0.693573 9.64639 0.851562 9.7713L8 15.4295L15.1484 9.7713C15.3064 9.64638 15.5218 9.62306 15.7031 9.71076C15.8845 9.79851 15.9999 9.98196 16 10.1834V14.5154ZM16 24.1717C15.9999 24.3322 15.9266 24.4842 15.8008 24.5838L8.32617 30.4998C8.13508 30.651 7.86492 30.651 7.67383 30.4998L0.199219 24.5838C0.0733814 24.4842 0.000115395 24.3322 0 24.1717V19.8397C6.77109e-05 19.6382 0.11553 19.4548 0.296875 19.367C0.478183 19.2793 0.693574 19.3026 0.851563 19.4276L8 25.0858L15.1484 19.4276C15.3064 19.3026 15.5218 19.2793 15.7031 19.367C15.8845 19.4548 15.9999 19.6382 16 19.8397V24.1717ZM8.32617 6.85334C8.13503 7.00461 7.86497 7.00461 7.67383 6.85334L1.05078 1.61212V4.60236L8 10.1024L14.9492 4.60236V1.61212L8.32617 6.85334ZM8.32617 16.5115C8.13503 16.6628 7.86497 16.6628 7.67383 16.5115L1.05078 11.2703V14.2606L8 19.7606L14.9492 14.2606V11.2703L8.32617 16.5115ZM8.32617 26.1678C8.13503 26.3191 7.86497 26.3191 7.67383 26.1678L1.05078 20.9266V23.9168L8 29.4168L14.9492 23.9168V20.9266L8.32617 26.1678Z" fill="url(#paint0_linear_1772_10981)"/>
<defs>
<linearGradient id="paint0_linear_1772_10981" x1="8" y1="31" x2="8" y2="-4.50492e-07" gradientUnits="userSpaceOnUse">
<stop stop-color="white"/>
<stop offset="1" stop-color="white" stop-opacity="0.2"/>
</linearGradient>
</defs>
</svg>
