<svg width="15" height="15" viewBox="0 0 15 15" fill="none" xmlns="http://www.w3.org/2000/svg">
<path d="M2.29101 6.94558C2.03213 6.9463 1.77875 7.02031 1.56018 7.15903C1.3416 7.29776 1.16677 7.49553 1.05591 7.72947C0.945044 7.96341 0.90268 8.22396 0.933718 8.48098C0.964756 8.73799 1.06793 8.98096 1.23129 9.18179L4.71389 13.448C4.83806 13.6021 4.99723 13.7245 5.17817 13.8048C5.35912 13.8851 5.55661 13.9211 5.75425 13.9098C6.17697 13.8871 6.5586 13.6609 6.80192 13.2891L14.0362 1.6384C14.0373 1.63647 14.0386 1.63454 14.0399 1.63264C14.1077 1.52841 14.0857 1.32188 13.9456 1.19213C13.9071 1.1565 13.8617 1.12912 13.8123 1.11169C13.7628 1.09426 13.7103 1.08714 13.658 1.09076C13.6057 1.09439 13.5546 1.1087 13.508 1.13279C13.4615 1.15689 13.4203 1.19026 13.3871 1.23087C13.3845 1.23406 13.3818 1.2372 13.3791 1.2403L6.08325 9.48349C6.05548 9.51486 6.02177 9.5404 5.98405 9.55863C5.94634 9.57685 5.90538 9.58741 5.86355 9.58967C5.82172 9.59193 5.77986 9.58586 5.7404 9.57181C5.70094 9.55775 5.66466 9.536 5.63368 9.50781L3.21233 7.30437C2.96085 7.07384 2.63217 6.94584 2.29101 6.94558Z" fill="url(#paint0_linear_2774_8349)"/>
<defs>
<linearGradient id="paint0_linear_2774_8349" x1="4.21851" y1="-0.521937" x2="10.7002" y2="17.4136" gradientUnits="userSpaceOnUse">
<stop stop-color="#23ADA4"/>
<stop offset="1" stop-color="#23ADA4"/>
</linearGradient>
</defs>
</svg>
