<svg width="16" height="16" viewBox="0 0 16 16" fill="none" xmlns="http://www.w3.org/2000/svg">
<path d="M7.20643 15.0006C7.11392 15.0008 7.02344 14.9735 6.94646 14.9221C6.86949 14.8708 6.80948 14.7978 6.77406 14.7123C6.73863 14.6269 6.72938 14.5328 6.74748 14.4421C6.76557 14.3514 6.81019 14.2681 6.87569 14.2027L14.079 7.00036C14.2104 6.87217 14.315 6.71905 14.3865 6.54996C14.4581 6.38088 14.4952 6.19923 14.4957 6.01563C14.496 5.82969 14.4593 5.64554 14.3878 5.47391C14.3163 5.30228 14.2113 5.14661 14.079 5.01595L11.4453 2.38222C11.3152 2.25031 11.1603 2.14548 10.9896 2.0738C10.8188 2.00211 10.6355 1.965 10.4502 1.9646C10.2672 1.96491 10.0861 2.00177 9.91746 2.073C9.74885 2.14423 9.59615 2.24841 9.46832 2.37942L1.92215 9.92092C1.79071 10.0491 1.68617 10.2022 1.61462 10.3713C1.54307 10.5404 1.50596 10.7221 1.50546 10.9056C1.50512 11.0916 1.54179 11.2757 1.61333 11.4474C1.68487 11.619 1.78984 11.7747 1.92215 11.9053L4.22047 14.2027C4.30819 14.2903 4.35752 14.4092 4.3576 14.5331C4.35769 14.6571 4.30853 14.776 4.22094 14.8637C4.13335 14.9514 4.0145 15.0008 3.89054 15.0009C3.76657 15.0009 3.64765 14.9518 3.55994 14.8642L1.26161 12.5659C1.04263 12.3497 0.868763 12.0922 0.750092 11.8084C0.631421 11.5245 0.570313 11.2199 0.570312 10.9122C0.570313 10.6045 0.631421 10.2999 0.750092 10.016C0.868763 9.73214 1.04263 9.47465 1.26161 9.25851L8.79844 1.72168C9.01267 1.50332 9.26824 1.32981 9.55023 1.21127C9.83223 1.09273 10.135 1.03153 10.4409 1.03125H10.4484C10.7563 1.03127 11.0612 1.09239 11.3454 1.21106C11.6296 1.32974 11.8874 1.50361 12.1039 1.72262L14.7377 4.35635C14.9566 4.57249 15.1305 4.82997 15.2492 5.11385C15.3678 5.39772 15.429 5.70234 15.429 6.01002C15.429 6.31771 15.3678 6.62232 15.2492 6.9062C15.1305 7.19008 14.9566 7.44756 14.7377 7.6637L7.53343 14.8642C7.44657 14.9508 7.32911 14.9998 7.20643 15.0006Z" fill="#E92424"/>
<path d="M13.6065 15.0007H3.88999C3.7661 15.0007 3.64728 14.9515 3.55967 14.8639C3.47207 14.7763 3.42285 14.6574 3.42285 14.5335C3.42285 14.4097 3.47207 14.2908 3.55967 14.2032C3.64728 14.1156 3.7661 14.0664 3.88999 14.0664H13.6065C13.7304 14.0664 13.8492 14.1156 13.9368 14.2032C14.0244 14.2908 14.0736 14.4097 14.0736 14.5335C14.0736 14.6574 14.0244 14.7763 13.9368 14.8639C13.8492 14.9515 13.7304 15.0007 13.6065 15.0007Z" fill="#E92424"/>
<path d="M9.24303 12.9743C9.11937 12.9743 9.00078 12.9252 8.91323 12.8379L3.63455 7.55925C3.54946 7.47114 3.50237 7.35314 3.50344 7.23066C3.5045 7.10818 3.55363 6.99101 3.64024 6.9044C3.72685 6.81779 3.84402 6.76866 3.9665 6.7676C4.08898 6.76653 4.20698 6.81362 4.29509 6.89871L9.57376 12.1774C9.63894 12.2428 9.68329 12.326 9.70119 12.4166C9.7191 12.5071 9.70978 12.601 9.67439 12.6862C9.639 12.7715 9.57914 12.8444 9.50237 12.8957C9.42559 12.9469 9.33535 12.9743 9.24303 12.9743Z" fill="#E92424"/>
</svg>
