<svg version="1.1" id="Layer_1" xmlns="http://www.w3.org/2000/svg" xmlns:xlink="http://www.w3.org/1999/xlink" x="0px" y="0px"
	 width="100%" viewBox="0 0 1024 672" enable-background="new 0 0 1024 672" xml:space="preserve">
<path fill="#000000" opacity="1.000000" stroke="none" 
	d="
M615.337891,437.610535 
	C610.989807,432.413818 609.709839,426.919708 611.416748,420.677979 
	C614.559692,420.342834 616.728394,422.249176 619.254761,422.913757 
	C629.094727,425.502258 637.590210,423.922455 644.692871,416.048096 
	C655.146362,404.458771 661.672302,390.635101 667.821411,376.568970 
	C670.257629,370.996185 672.502258,365.339661 674.080627,359.353302 
	C668.582214,367.551819 663.048401,375.726990 657.611084,383.965851 
	C656.301758,385.949738 654.806763,387.619507 652.819641,388.948608 
	C633.872681,401.621887 613.632996,411.588196 591.870300,418.465271 
	C588.223572,419.617645 585.270752,419.303436 583.040710,416.129181 
	C581.271790,413.611206 578.973022,413.070709 576.090576,413.334534 
	C568.921753,413.990662 562.863403,415.236053 557.448303,421.655945 
	C552.885193,427.065765 547.748962,433.795929 539.144836,434.524780 
	C537.304871,434.680603 536.870667,436.786621 535.984619,438.157135 
	C533.911011,441.364532 531.232300,444.211975 527.312317,444.169525 
	C523.130615,444.124268 520.079407,445.380951 517.227783,448.380280 
	C514.230591,451.532654 510.189545,452.069366 506.089478,450.881836 
	C503.632446,450.170166 501.627686,450.362213 499.586334,452.013519 
	C494.829773,455.861084 489.565125,456.289459 484.141968,453.610626 
	C481.394073,452.253326 478.927673,452.323517 476.045410,453.379150 
	C470.845581,455.283569 465.821228,454.993469 462.021149,450.242737 
	C460.725525,448.622925 459.205383,448.096130 457.222748,448.271576 
	C455.903931,448.388306 454.562805,448.227783 453.232056,448.239166 
	C447.476746,448.288300 446.950165,440.272888 441.360931,440.384003 
	C435.220032,440.506073 432.510193,436.645630 430.361267,431.864014 
	C429.710510,430.416077 428.869812,429.451843 427.096252,429.230103 
	C420.837738,428.447601 418.052185,424.278137 416.964783,418.513397 
	C416.464752,415.862518 407.029785,408.353455 404.385498,408.420929 
	C404.060699,408.429230 403.627777,408.434082 403.431458,408.628662 
	C396.967651,415.035004 389.191956,412.120605 382.084625,411.051147 
	C362.206879,408.060150 342.606354,409.737518 322.956970,412.874756 
	C297.828491,416.886871 272.716309,418.496460 247.594360,412.341278 
	C203.566177,401.553894 171.458328,364.263184 166.443085,319.437775 
	C163.675278,294.699646 165.608734,270.797150 175.350342,248.007401 
	C189.516861,214.865829 214.621872,194.034637 249.723282,185.642593 
	C283.753357,177.506683 316.429565,181.162460 347.607819,197.440979 
	C353.029480,200.271683 355.748199,203.189133 354.656189,210.122452 
	C353.005432,220.603210 352.980072,231.340744 352.282959,241.970413 
	C352.112610,244.567917 351.917114,247.018417 348.488770,247.419861 
	C345.170990,247.808350 344.680756,245.374969 344.019745,243.159531 
	C340.713684,232.078186 335.428101,222.153564 326.508911,214.593033 
	C306.799103,197.885544 266.725372,196.118591 249.153763,228.272598 
	C231.818802,259.993591 229.304993,293.499420 243.468475,326.889313 
	C254.337570,352.512848 275.616974,365.484772 302.978546,368.747131 
	C329.616608,371.923218 354.984100,366.891388 379.575531,356.866333 
	C380.625122,356.438446 381.838531,356.273743 382.702179,354.712524 
	C360.680511,351.429626 339.143860,346.992889 319.021118,336.001526 
	C321.029144,334.568787 322.110748,335.429749 323.089539,335.831879 
	C346.442261,345.427002 371.035706,348.009399 395.946869,348.666504 
	C400.595612,348.789154 404.955048,348.959320 407.929779,353.252930 
	C408.616333,354.243866 409.822601,354.598175 411.040771,354.599884 
	C418.830872,354.610901 426.610840,355.581696 434.326263,353.075012 
	C442.228180,350.507690 450.284637,348.363556 458.623871,347.510742 
	C460.389160,347.330231 462.118927,346.476135 463.789398,345.756683 
	C468.440216,343.753693 473.217926,342.459290 478.333649,342.772705 
	C485.244324,343.196075 491.966187,342.222748 498.479828,339.919983 
	C504.038757,337.954681 509.454956,338.445312 514.351685,341.471710 
	C525.395752,348.297394 538.384460,349.041290 550.320862,353.054260 
	C556.306091,355.066437 563.226929,352.951233 568.219238,348.037964 
	C570.573975,345.720520 573.448669,345.197662 576.375488,344.770477 
	C598.703613,341.511627 620.507507,336.404602 641.166931,327.030029 
	C647.404907,324.199463 653.316833,320.806915 659.231812,317.391724 
	C661.766541,315.928192 662.593201,314.430847 661.158325,311.377167 
	C648.198792,283.797638 635.472534,256.108521 622.538452,228.516891 
	C619.631531,222.315735 615.585510,216.777939 611.112000,211.571793 
	C609.746277,209.982437 607.833130,208.637604 608.070618,206.118820 
	C609.389709,204.233185 611.381897,204.769699 613.116943,204.766022 
	C635.445984,204.718582 657.775208,204.710968 680.104187,204.753983 
	C681.822876,204.757294 684.120056,204.054245 684.963623,206.238098 
	C685.872498,208.590973 684.524719,210.477386 682.562012,211.713516 
	C679.904297,213.387375 679.622437,215.681885 680.796204,218.203552 
	C693.231934,244.919983 705.717224,271.613373 718.214844,298.300964 
	C718.481323,298.870056 719.056274,299.294708 719.806946,300.151642 
	C723.330933,295.391022 725.156555,290.058502 727.467468,284.999786 
	C737.362915,263.337891 747.189819,241.644638 757.097961,219.988525 
	C758.413513,217.113159 759.684631,214.599548 756.006470,212.336334 
	C754.042114,211.127625 754.661011,208.744598 754.873230,206.780685 
	C755.059387,205.057983 756.430908,204.767334 757.825317,204.770630 
	C769.652222,204.798691 781.479126,204.848160 793.305786,204.927414 
	C793.744873,204.930359 794.181519,205.305435 794.546814,205.473709 
	C795.415710,207.089661 794.568848,208.287949 793.549438,209.068420 
	C784.000854,216.378815 780.650818,227.436249 776.192627,237.777603 
	C763.007690,268.362518 750.065308,299.052460 736.780762,329.593719 
	C731.331848,342.120789 722.837158,352.986176 716.713440,365.222656 
	C708.671997,381.291229 701.147461,397.687134 691.271362,412.779266 
	C680.276550,429.581024 666.277832,442.326141 645.353210,444.816711 
	C634.703308,446.084320 624.372253,445.068024 615.337891,437.610535 
M394.342682,392.804077 
	C394.555328,394.819244 395.326904,396.285461 397.943604,396.274078 
	C399.681335,392.449310 398.254883,387.549042 401.593109,383.721832 
	C401.923828,384.698273 402.173004,385.145264 402.219055,385.612305 
	C403.148376,395.045624 412.406891,404.170227 421.712189,404.841614 
	C423.276550,404.954529 424.623840,404.473877 426.018188,403.846710 
	C434.043701,400.236877 437.230103,400.981079 442.876495,407.665436 
	C452.732971,403.069885 455.042969,403.722351 461.821259,413.016266 
	C469.139862,411.711273 470.917664,412.015289 474.235840,415.174591 
	C474.954742,415.859100 475.578522,417.123627 476.344238,417.205719 
	C485.433044,418.179993 490.797180,424.991150 497.028351,430.349915 
	C500.227295,433.100952 502.578339,432.307892 505.170013,429.569824 
	C500.656921,422.465088 491.474274,418.899689 489.853668,409.307953 
	C495.520569,410.172089 495.914246,410.409729 505.559967,418.470673 
	C512.632996,424.381653 513.694946,424.311127 519.637085,418.012421 
	C516.140991,414.206360 512.582947,410.482056 509.198883,406.605896 
	C505.964355,402.901031 501.556580,399.642700 503.160217,392.952484 
	C508.872467,398.959625 515.593140,402.696625 521.420898,407.593964 
	C523.556458,409.388550 526.263123,410.909424 528.432983,408.112335 
	C531.530151,404.120026 534.552368,404.304749 538.247375,407.341858 
	C526.200073,396.267365 513.989563,385.737183 500.939514,376.234253 
	C497.952789,374.059357 494.236237,373.725433 490.576294,373.080658 
	C482.114136,371.589844 476.488678,377.763794 469.579132,380.275818 
	C462.363861,382.898956 455.380798,385.093536 447.771027,383.062531 
	C443.736359,381.985687 440.464233,379.717255 439.409973,375.318481 
	C438.379639,371.019409 441.541534,369.070221 444.281128,366.868530 
	C446.874237,364.784546 449.481720,362.699158 451.888245,360.409790 
	C453.225616,359.137482 455.132629,357.956573 454.616882,355.560242 
	C453.075378,354.711975 451.504486,355.068054 450.141968,355.457642 
	C435.165649,359.739929 420.091034,362.831909 404.396088,360.178131 
	C401.756714,359.731903 400.510376,361.388885 399.744385,363.695282 
	C396.691162,372.888092 394.205048,382.181580 394.342682,392.804077 
M517.048462,360.089813 
	C518.105591,359.765320 519.200439,358.898163 520.123596,360.334717 
	C524.442261,367.055206 531.430969,370.510925 537.876770,374.525787 
	C543.020996,377.729919 548.725891,380.077637 554.951111,378.556244 
	C557.799866,377.860016 557.842590,380.159760 558.592590,381.148163 
	C562.339966,380.432983 565.570984,379.816345 568.901672,379.180695 
	C569.435852,373.523499 567.230469,368.832794 565.046631,364.201965 
	C561.945557,357.626129 560.097351,356.950256 552.885132,359.226074 
	C552.552551,362.128265 555.991333,363.918427 555.334778,366.997314 
	C553.316956,367.203949 552.854248,365.482727 551.883179,364.493378 
	C546.915771,359.432281 541.549194,354.840942 534.331726,353.636810 
	C527.175903,352.442993 520.492554,350.175568 514.094727,346.821320 
	C510.046631,344.698975 505.630859,343.100433 501.109711,344.540253 
	C491.814789,347.500336 482.204163,348.295013 472.625244,349.407776 
	C468.089172,349.934723 465.116425,352.272034 461.974609,355.775482 
	C457.348785,360.933777 459.913147,366.771606 457.689758,372.972198 
	C465.729950,368.805573 474.242737,367.243744 477.215851,358.231781 
	C487.760223,365.205017 497.074524,360.189331 506.080170,354.962830 
	C507.200745,357.119751 505.151947,358.427307 506.432617,360.230896 
	C509.504242,361.661285 512.918030,361.115326 517.048462,360.089813 
M578.246155,390.695190 
	C578.246155,393.452362 578.246155,396.209503 578.246155,398.966675 
	C578.553589,399.000671 578.861023,399.034698 579.168457,399.068726 
	C579.802795,395.844574 580.437134,392.620392 581.237671,388.551666 
	C583.879578,392.429779 583.314575,396.319672 585.456055,400.676270 
	C586.558350,384.790710 583.071533,371.212280 576.358521,358.381653 
	C573.292847,352.522217 573.104614,352.620697 565.734619,355.431641 
	C571.564026,366.296234 576.567932,377.465820 578.246155,390.695190 
M456.812225,433.218536 
	C459.403076,432.295013 463.220551,432.445557 461.184631,427.704865 
	C465.268890,427.667999 467.560211,425.251495 469.712585,422.668335 
	C470.898254,421.245361 471.265381,419.664276 469.784088,418.203156 
	C468.565063,417.000702 467.075043,415.854034 465.365814,417.017944 
	C459.569000,420.965271 454.753418,425.808411 451.764191,432.019867 
	C453.134857,434.099945 454.665894,433.619873 456.812225,433.218536 
M440.874329,425.071350 
	C444.220642,424.599396 446.617004,423.407440 444.558289,418.971832 
	C448.937500,420.396149 451.154877,417.920715 453.421600,415.741089 
	C454.717560,414.494904 455.370911,412.868347 453.820587,411.369751 
	C452.491608,410.085175 450.513672,408.627808 448.995941,410.165253 
	C445.343750,413.864716 439.760986,415.270599 437.305359,420.370575 
	C435.702942,423.698578 436.017822,425.517181 440.874329,425.071350 
M616.829468,340.456451 
	C610.835266,341.955109 604.841064,343.453735 598.846863,344.952393 
	C620.585999,341.480774 641.750549,336.085876 661.506653,326.119049 
	C663.373413,325.177277 665.798767,324.620422 666.308838,320.742004 
	C650.280884,329.430817 634.383545,335.972168 616.829468,340.456451 
M475.931976,428.929352 
	C473.373810,432.479614 470.162659,435.615417 468.587036,439.946472 
	C471.796844,440.415741 480.410553,433.482391 480.137573,430.724457 
	C479.934174,428.669250 478.770111,427.314362 475.931976,428.929352 
M436.187042,409.353851 
	C435.923279,408.770172 435.814880,407.992828 435.369537,407.635498 
	C433.138977,405.845917 430.794830,405.519775 428.809570,407.926270 
	C427.641968,409.341614 426.550507,411.232849 428.212677,412.839081 
	C430.490967,415.040558 432.478363,413.173004 434.323425,411.787598 
	C434.969055,411.302856 435.436737,410.581085 436.187042,409.353851 
M562.026978,388.297485 
	C558.079468,386.208130 555.405518,387.647705 553.206116,391.206726 
	C556.895935,393.206116 560.403687,392.706940 563.856018,392.339386 
	C564.571228,390.521179 563.413696,389.691925 562.026978,388.297485 
M447.274384,370.865417 
	C448.000061,373.515747 450.151031,372.998169 451.533691,372.181976 
	C454.055878,370.693085 457.287598,369.499115 457.339386,365.013000 
	C452.854431,365.079193 450.394592,368.087830 447.274384,370.865417 
z"/>
<path fill="#000000" opacity="1.000000" stroke="none" 
	d="
M490.730896,299.747803 
	C493.573761,292.641174 496.940491,286.382874 504.042023,283.194427 
	C506.676178,282.011719 509.418762,281.227509 512.268677,282.283264 
	C514.221497,283.006744 515.879761,283.315979 517.882996,282.052063 
	C519.675598,280.921051 521.752991,281.523621 523.450012,282.902313 
	C525.389343,284.477905 524.929260,286.373322 524.247864,288.355865 
	C522.409546,293.704803 520.601990,299.064453 518.818848,304.432007 
	C518.330627,305.901703 518.053589,307.568176 519.489990,308.564941 
	C521.358337,309.861359 522.618469,308.208740 523.710876,307.065887 
	C528.333923,302.229492 532.367249,297.078888 534.656860,290.572235 
	C537.237976,283.237152 540.485352,276.136505 543.372070,269.106720 
	C541.448242,266.121368 538.311890,268.998596 536.177124,266.978210 
	C536.466980,262.876587 538.833862,260.562103 542.875305,260.779785 
	C547.374023,261.022064 549.959412,259.011719 552.028198,255.337418 
	C553.747070,252.284653 556.175903,249.701462 558.956482,247.527176 
	C561.747070,245.345001 564.585083,245.535828 567.071167,247.944458 
	C569.625244,250.418991 567.058899,252.118484 565.812073,253.896301 
	C564.287109,256.070770 562.632812,258.153107 561.656555,261.307587 
	C567.929565,264.465607 574.912476,262.062927 581.527832,263.367249 
	C581.153442,266.305786 579.279846,266.846252 577.346619,267.411774 
	C571.947327,268.991302 566.423401,268.300720 560.950867,268.289917 
	C558.173645,268.284424 556.236145,269.029205 554.875610,271.625580 
	C549.536438,281.814606 544.416443,292.089752 541.062256,303.142639 
	C540.725952,304.250977 540.403137,305.394348 540.315491,306.539948 
	C540.178101,308.334991 539.754578,310.437653 541.793579,311.438660 
	C543.755005,312.401611 545.304077,311.056732 546.689331,309.834808 
	C550.850891,306.163971 554.246155,302.160278 555.712585,296.451630 
	C557.692322,288.744476 561.863525,282.436371 569.961365,279.686523 
	C573.198608,278.587250 576.297180,278.696564 578.807190,281.167023 
	C581.365234,283.684784 581.299438,286.796021 580.105835,289.991089 
	C578.139587,295.254120 574.459778,298.934265 569.572083,301.522980 
	C567.218384,302.769684 565.108826,304.249756 566.636047,307.347473 
	C568.140564,310.398956 570.868530,310.383514 573.529358,309.370209 
	C578.715881,307.395111 582.216064,303.345764 585.457458,299.059509 
	C586.963013,297.068634 588.384277,295.012207 589.937744,293.060303 
	C590.594910,292.234650 591.598328,291.845367 592.591553,292.532654 
	C593.551514,293.196930 593.726990,294.342224 593.172180,295.204346 
	C587.496277,304.023987 582.313599,313.511261 570.820740,315.943237 
	C564.191528,317.346008 559.289246,314.043182 555.519958,309.070221 
	C553.172729,309.357391 552.269043,311.122192 550.994019,312.363953 
	C541.940125,321.181732 535.706970,320.287109 529.571655,309.262024 
	C514.826416,316.595856 514.826416,316.595856 508.209015,309.902832 
	C505.030823,312.039490 502.912811,315.855682 498.507324,316.310913 
	C493.928528,316.784058 491.507294,313.988098 489.293610,310.312195 
	C486.754272,312.163727 484.633881,313.997986 482.251770,315.381653 
	C478.317902,317.666687 473.976410,318.782196 470.077393,315.688904 
	C466.190063,312.604919 466.885040,308.252991 468.391174,304.193726 
	C470.051361,299.719330 472.027374,295.362122 473.929749,290.800507 
	C469.662384,289.724609 466.550568,290.083679 463.998749,293.781708 
	C461.643982,297.194183 457.662903,298.631042 453.767822,299.599579 
	C450.851288,300.324799 449.306702,301.923737 448.246674,304.640991 
	C446.323456,309.570923 443.343597,313.752686 438.301147,315.992950 
	C431.041382,319.218323 423.873047,315.657684 422.046997,307.980255 
	C420.026245,299.484161 424.462189,288.168549 431.742371,283.248566 
	C440.699158,277.195526 447.775848,279.972321 450.238373,290.483215 
	C450.752075,292.675812 449.946350,296.046234 454.264801,294.946320 
	C458.906097,293.764191 462.253448,289.905090 461.376709,286.522736 
	C459.988586,281.167511 461.368195,276.929932 465.426697,274.266205 
	C467.455536,272.934601 469.633728,271.970703 471.901276,273.627045 
	C474.037933,275.187653 472.874786,277.196075 472.396881,279.099091 
	C472.119720,280.202606 472.001465,281.346069 471.811615,282.472198 
	C474.122437,284.513336 476.720978,283.457428 479.101868,283.598816 
	C484.175995,283.900085 486.118896,286.337097 484.404053,291.166077 
	C482.848969,295.545258 480.660522,299.695496 478.899200,304.007111 
	C477.984650,306.245789 476.568817,308.499481 478.080353,311.739838 
	C484.130249,309.763245 487.693634,305.290100 490.730896,299.747803 
M441.797302,303.406677 
	C444.744751,298.372284 439.334808,292.772461 443.606354,288.000031 
	C440.385254,286.598206 438.756195,288.141327 437.341187,289.705170 
	C434.746674,292.572510 433.018433,295.980835 432.201202,299.758057 
	C431.421082,303.363464 429.239746,308.164581 433.317993,310.093811 
	C437.795135,312.211761 439.432587,307.094421 441.797302,303.406677 
M509.743042,297.244598 
	C510.737213,294.265747 513.471130,291.680969 511.835419,287.578094 
	C505.176361,288.995117 503.067993,294.407532 501.055481,299.495056 
	C499.994904,302.176239 497.655975,305.494690 501.317444,308.513489 
	C505.575836,305.998993 507.183380,301.708405 509.743042,297.244598 
M571.199829,294.539642 
	C573.435669,292.136658 575.381897,289.618561 574.898926,285.372162 
	C569.481018,287.691681 567.832153,291.885437 566.611206,296.563202 
	C568.642395,297.182312 569.514526,295.715210 571.199829,294.539642 
z"/>
<path fill="#000000" opacity="1.000000" stroke="none" 
	d="
M354.532196,294.624023 
	C351.710114,298.120911 347.699310,298.665680 344.183563,299.879517 
	C341.702667,300.736053 340.288483,301.896027 339.307037,304.231262 
	C337.477264,308.584991 334.952484,312.474213 330.791443,315.048035 
	C322.469482,320.195496 313.603455,315.950470 312.479095,306.262299 
	C311.394409,296.916016 316.374725,286.433105 323.855133,282.317383 
	C331.497650,278.112457 336.888367,280.129578 339.712097,288.277618 
	C340.518097,290.603394 341.244720,292.956665 341.989716,295.241974 
	C349.745056,294.927460 352.707733,291.675446 351.652649,284.783447 
	C351.248718,282.144867 352.092896,279.856506 353.428650,277.676422 
	C355.213654,274.762970 357.620697,272.509369 361.196594,273.764618 
	C365.066681,275.123138 363.389008,278.325317 362.849274,281.012878 
	C362.753448,281.489899 362.738525,281.983185 362.678528,282.540497 
	C364.622314,284.541016 367.085205,283.549622 369.291626,283.648224 
	C374.795837,283.894257 376.899139,286.593353 374.981415,291.805817 
	C373.375000,296.171967 371.158905,300.309998 369.387268,304.620758 
	C368.533875,306.697083 367.335419,308.834808 368.324219,311.270355 
	C370.990814,312.302582 372.557220,310.495239 373.992065,309.025879 
	C380.057892,302.814240 385.825531,296.375519 388.966858,288.039764 
	C389.783539,285.872681 390.931335,283.800507 392.148743,281.821106 
	C394.120605,278.614990 396.847443,276.968201 400.533295,279.041534 
	C404.376007,281.203094 403.487213,284.087830 401.436127,287.030457 
	C401.170593,287.411407 401.060425,287.900696 400.460022,289.348328 
	C404.048920,286.040955 406.716980,283.122833 410.373047,281.551086 
	C416.554230,278.893738 420.987030,281.637695 421.330994,288.362823 
	C421.900482,299.497314 411.846497,312.682709 400.936707,314.944000 
	C399.353668,315.272125 397.296844,315.588013 396.051697,314.875000 
	C390.946655,311.951508 389.697205,315.291290 388.409363,319.045990 
	C386.136688,325.671783 384.442719,332.437958 383.246429,339.335327 
	C382.991486,340.805420 382.830261,342.477264 381.077881,342.924225 
	C379.442902,343.341217 378.230652,342.240936 377.142914,341.199127 
	C374.249207,338.427734 374.355865,334.868103 374.966583,331.385040 
	C375.770355,326.800903 376.901245,322.273041 377.934448,317.730774 
	C378.292236,316.157867 379.089081,314.622894 378.174896,312.896301 
	C375.364868,313.097839 373.818451,315.418884 371.544250,316.336578 
	C367.794891,317.849487 363.984863,318.524658 360.707703,315.678162 
	C357.605042,312.983215 357.312592,309.248535 358.653381,305.552002 
	C360.350281,300.873474 362.326904,296.296448 364.286499,291.417694 
	C360.078308,289.159607 357.145325,290.773438 354.532196,294.624023 
M326.095612,310.613861 
	C330.557770,308.770905 333.342346,304.756775 333.231476,300.656769 
	C333.111938,296.236389 331.778320,291.859497 334.091461,287.663086 
	C332.270203,287.081207 331.339050,287.402405 330.452728,287.893738 
	C325.842438,290.449371 320.462250,301.798615 321.497131,306.962433 
	C321.909027,309.017731 322.826965,310.767639 326.095612,310.613861 
M401.081879,307.620514 
	C406.439545,302.490631 410.656738,296.846130 409.815948,288.842865 
	C401.586182,293.975281 396.976196,301.697174 392.753357,310.089417 
	C396.312805,311.350372 398.353363,309.501617 401.081879,307.620514 
z"/>
<path fill="#000000" opacity="1.000000" stroke="none" 
	d="
M804.721436,357.374268 
	C800.441833,363.529449 795.694458,368.891418 790.208252,373.539124 
	C783.762817,378.999420 780.202393,378.382690 776.028625,371.405060 
	C765.411011,379.280640 763.737122,379.368408 758.380188,372.101868 
	C755.433594,373.772369 753.023254,376.610413 749.450073,377.100494 
	C744.908142,377.723419 743.625671,374.186829 742.026245,370.585480 
	C739.131104,372.216675 737.238037,374.909851 734.332214,376.177399 
	C728.815186,378.583954 724.989136,376.391083 724.720337,370.482269 
	C724.139832,357.724274 736.598267,347.681732 748.797668,351.104340 
	C751.880432,351.969238 755.381226,349.134399 758.488586,352.450531 
	C756.227539,358.705139 751.000244,364.060638 751.151245,372.514862 
	C755.664734,369.370026 758.933655,366.337616 761.242493,362.286499 
	C763.849426,357.712494 767.186523,353.857574 771.935486,351.394867 
	C775.021973,349.794312 778.235474,349.014893 781.496033,350.730377 
	C783.472595,351.770294 785.337463,351.095581 787.303894,350.997040 
	C791.504700,350.786438 792.637878,352.713013 790.731750,356.386292 
	C788.180237,361.303375 785.108643,366.043610 784.659912,373.191528 
	C791.713867,368.480469 796.544800,363.445618 800.248535,357.285736 
	C801.299622,355.537628 799.974365,354.176880 799.333496,352.665466 
	C797.987305,349.490631 798.783569,346.798431 801.611023,344.788727 
	C803.115906,343.719147 805.574219,343.320953 806.112854,344.756287 
	C808.004822,349.798218 812.470215,350.864685 816.534119,352.936890 
	C819.119995,354.255463 818.281067,356.862427 816.996582,359.076447 
	C814.604248,363.200226 811.406860,366.944702 810.578247,372.022217 
	C813.070435,373.369476 814.475708,371.595123 815.926208,370.451996 
	C821.414246,366.127075 825.378967,360.695831 827.704468,354.058228 
	C828.511780,351.753815 829.246521,348.797333 832.789856,350.265717 
	C836.175720,351.668823 837.064697,354.186340 835.358032,357.562378 
	C833.781311,360.681427 832.226685,363.817719 830.833252,367.020752 
	C830.148499,368.594727 829.121887,370.263367 830.224976,372.458344 
	C837.150574,370.293182 840.433533,363.550659 845.633301,359.692810 
	C847.100586,361.200623 846.795288,362.024719 846.297729,362.682526 
	C842.768005,367.349213 838.925781,371.793304 834.039368,375.032745 
	C827.997192,379.038422 824.142212,377.817078 820.891174,371.298645 
	C818.266418,373.020416 815.796875,375.034332 813.002625,376.367920 
	C809.912415,377.842712 806.444580,378.278900 803.667175,375.593018 
	C800.931885,372.947784 801.759888,369.717377 803.142090,366.769196 
	C804.546753,363.773041 806.303467,360.941864 807.874146,358.096161 
	C807.169373,356.520203 806.130127,356.612915 804.721436,357.374268 
M735.668274,370.520264 
	C740.621582,366.297272 744.332153,361.160400 747.888000,355.226898 
	C746.392761,354.809418 745.742371,354.400238 745.198669,354.511566 
	C740.389282,355.496582 733.323669,364.580536 733.479004,369.533783 
	C733.509705,370.512573 734.093689,371.022186 735.668274,370.520264 
M771.834717,369.201660 
	C776.079712,365.460175 779.126343,360.916687 781.576721,355.638672 
	C775.893738,354.939362 767.053406,364.642426 768.535400,369.272552 
	C769.128418,371.125488 770.309692,370.073212 771.834717,369.201660 
z"/>
<path fill="#000000" opacity="1.000000" stroke="none" 
	d="
M839.951050,337.053711 
	C842.519226,340.124878 841.358765,342.498352 839.002747,344.487366 
	C837.492676,345.762238 835.671265,346.869995 833.654907,345.465424 
	C831.992920,344.307739 831.430725,342.584991 832.282898,340.699249 
	C833.711060,337.539032 835.897522,335.630676 839.951050,337.053711 
z"/>
<path fill="#000000" opacity="1.000000" stroke="none" 
	d="
M474.940491,408.115356 
	C477.010773,410.250732 480.050964,411.161194 480.504242,414.975739 
	C475.217712,414.123566 472.628418,410.966400 470.478546,406.938263 
	C472.645599,405.553284 473.494751,407.274292 474.940491,408.115356 
z"/>
<path fill="#000000" opacity="1.000000" stroke="none" 
	d="
M494.515533,382.502441 
	C497.984161,379.453491 499.735992,382.486267 502.905975,384.547974 
	C498.941040,385.889862 496.909454,384.006622 494.515533,382.502441 
z"/>
<path fill="#000000" opacity="1.000000" stroke="none" 
	d="
M490.929077,401.235962 
	C486.835785,403.378143 485.778168,399.618774 483.740753,397.583374 
	C486.909302,397.123291 488.778320,399.199493 490.929077,401.235962 
z"/>
</svg>