<svg width="86" height="86" viewBox="0 0 86 86" fill="none" xmlns="http://www.w3.org/2000/svg">
<path d="M68.9724 55.1753C69.4579 55.1753 69.8513 54.7819 69.8513 54.2964V52.2016C69.8513 49.0219 67.2645 46.4351 64.0849 46.4351H60.2082V19.2993C60.2082 17.786 58.977 16.5548 57.4637 16.5548H56.3492V15.5634C56.3492 14.05 55.118 12.8188 53.6047 12.8188H27.7354C27.543 12.8353 27.3512 12.8507 27.1134 13.0769L17.2582 22.9157C17.0066 23.167 16.931 23.5451 17.0669 23.8737C17.2029 24.2023 17.5235 24.4167 17.8791 24.4167H25.8702C27.3833 24.4167 28.6143 23.1856 28.6143 21.6725V14.5767H53.6047C54.1488 14.5767 54.5914 15.0193 54.5914 15.5634V46.4351H49.2341C46.0544 46.4351 43.4676 49.0219 43.4676 52.2016V60.4942H19.7445C19.2004 60.4942 18.7578 60.0516 18.7578 59.5075V27.6445C18.7578 27.159 18.3644 26.7656 17.8789 26.7656C17.3934 26.7656 17 27.159 17 27.6445V59.5075C17 61.0209 18.2312 62.252 19.7445 62.252H20.8602V63.2435C20.8602 64.7568 22.0909 65.988 23.6035 65.988H43.4677V67.0524C43.4677 70.2321 46.0545 72.8188 49.2342 72.8188H64.085C67.2646 72.8188 69.8514 70.2321 69.8514 67.0524V58.3993C69.8514 57.9138 69.458 57.5204 68.9725 57.5204C68.487 57.5204 68.0936 57.9138 68.0936 58.3993V67.0524C68.0936 69.2627 66.2953 71.061 64.085 71.061H49.2341C47.0238 71.061 45.2254 69.2627 45.2254 67.0524V52.2016C45.2254 49.9913 47.0238 48.193 49.2341 48.193H64.0849C66.2952 48.193 68.0935 49.9913 68.0935 52.2016V54.2964C68.0935 54.7819 68.4869 55.1753 68.9724 55.1753ZM26.8565 21.6725C26.8565 22.2165 26.4141 22.6588 25.8702 22.6588H20.0035L26.8565 15.8171V21.6725ZM23.6035 64.2302C23.06 64.2302 22.618 63.7876 22.618 63.2435V62.252H43.4677V64.2302H23.6035ZM56.3492 18.3126H57.4637C58.0078 18.3126 58.4504 18.7552 58.4504 19.2993V46.4353H56.3492V18.3126Z" fill="url(#paint0_linear_1772_10922)"/>
<path d="M60.4214 54.2986L55.0475 59.6727L53.3178 57.943C52.5241 57.1495 51.2327 57.1495 50.4389 57.943L48.9038 59.4781C48.1102 60.2718 48.1102 61.5633 48.9038 62.357L52.8368 66.2898C53.397 66.8501 54.142 67.1586 54.9341 67.1586C55.7263 67.1586 56.4713 66.85 57.0314 66.2899L64.7221 58.5992C65.5157 57.8055 65.5157 56.5141 64.7221 55.7204L63.3003 54.2986C62.5066 53.505 61.2153 53.505 60.4214 54.2986ZM63.4791 57.3562L55.7884 65.047C55.5603 65.2752 55.2569 65.4009 54.9341 65.4009C54.6114 65.4009 54.308 65.2753 54.0798 65.0469L50.1468 61.114C50.076 61.0432 50.0655 60.9606 50.0655 60.9175C50.0655 60.8745 50.076 60.7919 50.1468 60.7211L51.682 59.186C51.7527 59.1152 51.8354 59.1047 51.8784 59.1047C51.9214 59.1047 52.004 59.1152 52.0749 59.186L54.426 61.537C54.7691 61.8801 55.3257 61.8801 55.6689 61.537L61.6645 55.5415C61.7352 55.4707 61.8179 55.4601 61.8609 55.4601C61.9039 55.4601 61.9865 55.4707 62.0573 55.5415L63.4791 56.9633C63.5875 57.0717 63.5875 57.2479 63.4791 57.3562Z" fill="url(#paint1_linear_1772_10922)"/>
<path d="M47.9319 35.9038C49.2537 35.9038 50.3292 34.8283 50.3292 33.5065V20.136C50.3292 18.8142 49.2537 17.7388 47.9319 17.7388H34.5614C33.2395 17.7388 32.1641 18.8142 32.1641 20.136V33.5065C32.1641 34.8283 33.2395 35.9038 34.5614 35.9038H47.9319ZM37.9674 34.146V31.952C37.9674 30.6425 39.0328 29.5772 40.3422 29.5772H42.1609C43.4703 29.5772 44.5355 30.6425 44.5355 31.952V34.146H37.9674ZM42.474 26.5969C42.474 27.271 41.9255 27.8195 41.2514 27.8195C40.5772 27.8195 40.0287 27.271 40.0287 26.5969V25.6391C40.0287 24.9649 40.5772 24.4165 41.2514 24.4165C41.9255 24.4165 42.474 24.9649 42.474 25.6391V26.5969ZM33.9219 33.5065V20.136C33.9219 19.7833 34.2088 19.4966 34.5614 19.4966H47.9319C48.2845 19.4966 48.5714 19.7833 48.5714 20.136V33.5065C48.5714 33.8591 48.2845 34.146 47.9319 34.146H46.2932V31.952C46.2932 30.2518 45.2611 28.7887 43.7908 28.1551C44.0703 27.7013 44.2319 27.1677 44.2319 26.5969V25.6391C44.2319 23.9958 42.8949 22.6587 41.2515 22.6587C39.608 22.6587 38.2711 23.9956 38.2711 25.6391V26.5969C38.2711 27.1677 38.4327 27.7013 38.7121 28.1551C37.2418 28.7887 36.2096 30.2519 36.2096 31.952V34.146H34.5615C34.2089 34.146 33.9219 33.8591 33.9219 33.5065Z" fill="url(#paint2_linear_1772_10922)"/>
<path d="M23.1289 41.8574C23.1289 42.3429 23.5223 42.7363 24.0078 42.7363H49.1873C49.6728 42.7363 50.0662 42.3429 50.0662 41.8574C50.0662 41.3719 49.6728 40.9785 49.1873 40.9785H24.0078C23.5223 40.9785 23.1289 41.3719 23.1289 41.8574Z" fill="url(#paint3_linear_1772_10922)"/>
<path d="M37.9578 45.4233H24.0078C23.5223 45.4233 23.1289 45.8167 23.1289 46.3022C23.1289 46.7878 23.5223 47.1812 24.0078 47.1812H37.9578C38.4433 47.1812 38.8367 46.7878 38.8367 46.3022C38.8367 45.8167 38.4432 45.4233 37.9578 45.4233Z" fill="url(#paint4_linear_1772_10922)"/>
<path d="M37.9582 49.8677H35.082C34.5965 49.8677 34.2031 50.2611 34.2031 50.7466C34.2031 51.2321 34.5965 51.6255 35.082 51.6255H37.9582C38.4437 51.6255 38.8371 51.2321 38.8371 50.7466C38.8371 50.2611 38.4436 49.8677 37.9582 49.8677Z" fill="url(#paint5_linear_1772_10922)"/>
<path d="M24.0078 51.6255H30.9828C31.4683 51.6255 31.8617 51.2321 31.8617 50.7466C31.8617 50.2611 31.4683 49.8677 30.9828 49.8677H24.0078C23.5223 49.8677 23.1289 50.2611 23.1289 50.7466C23.1289 51.2321 23.5223 51.6255 24.0078 51.6255Z" fill="url(#paint6_linear_1772_10922)"/>
<path d="M24.0078 56.0703H37.9578C38.4433 56.0703 38.8367 55.6769 38.8367 55.1914C38.8367 54.7059 38.4433 54.3125 37.9578 54.3125H24.0078C23.5223 54.3125 23.1289 54.7059 23.1289 55.1914C23.1289 55.6769 23.5223 56.0703 24.0078 56.0703Z" fill="url(#paint7_linear_1772_10922)"/>
<path d="M26.2748 31.5151L23.3864 34.4033C23.0431 34.7466 23.0431 35.3031 23.3863 35.6462C23.558 35.8179 23.7829 35.9037 24.0079 35.9037C24.2328 35.9037 24.4578 35.8179 24.6293 35.6464L27.5177 32.7581C27.861 32.4149 27.861 31.8584 27.5178 31.5153C27.1745 31.1721 26.618 31.1719 26.2748 31.5151Z" fill="url(#paint8_linear_1772_10922)"/>
<defs>
<linearGradient id="paint0_linear_1772_10922" x1="30.2386" y1="5.27656" x2="64.1653" y2="85.888" gradientUnits="userSpaceOnUse">
<stop stop-color="#23ADA4"/>
<stop offset="1" stop-color="#23ADA4"/>
</linearGradient>
<linearGradient id="paint1_linear_1772_10922" x1="52.5691" y1="52.012" x2="58.3155" y2="71.6062" gradientUnits="userSpaceOnUse">
<stop stop-color="#23ADA4"/>
<stop offset="1" stop-color="#23ADA4"/>
</linearGradient>
<linearGradient id="paint2_linear_1772_10922" x1="36.7142" y1="15.4553" x2="46.0774" y2="40.7121" gradientUnits="userSpaceOnUse">
<stop stop-color="#23ADA4"/>
<stop offset="1" stop-color="#23ADA4"/>
</linearGradient>
<linearGradient id="paint3_linear_1772_10922" x1="29.8764" y1="40.7576" x2="29.9436" y2="43.5359" gradientUnits="userSpaceOnUse">
<stop stop-color="#23ADA4"/>
<stop offset="1" stop-color="#23ADA4"/>
</linearGradient>
<linearGradient id="paint4_linear_1772_10922" x1="27.0635" y1="45.2024" x2="27.1787" y2="47.9776" gradientUnits="userSpaceOnUse">
<stop stop-color="#23ADA4"/>
<stop offset="1" stop-color="#23ADA4"/>
</linearGradient>
<linearGradient id="paint5_linear_1772_10922" x1="35.3639" y1="49.6467" x2="35.7472" y2="52.3728" gradientUnits="userSpaceOnUse">
<stop stop-color="#23ADA4"/>
<stop offset="1" stop-color="#23ADA4"/>
</linearGradient>
<linearGradient id="paint6_linear_1772_10922" x1="25.3164" y1="49.6467" x2="25.5227" y2="52.4113" gradientUnits="userSpaceOnUse">
<stop stop-color="#23ADA4"/>
<stop offset="1" stop-color="#23ADA4"/>
</linearGradient>
<linearGradient id="paint7_linear_1772_10922" x1="27.0635" y1="54.0915" x2="27.1787" y2="56.8667" gradientUnits="userSpaceOnUse">
<stop stop-color="#23ADA4"/>
<stop offset="1" stop-color="#23ADA4"/>
</linearGradient>
<linearGradient id="paint8_linear_1772_10922" x1="24.2927" y1="30.6738" x2="26.6873" y2="37.1336" gradientUnits="userSpaceOnUse">
<stop stop-color="#23ADA4"/>
<stop offset="1" stop-color="#23ADA4"/>
</linearGradient>
</defs>
</svg>
