<svg width="86" height="86" viewBox="0 0 86 86" fill="none" xmlns="http://www.w3.org/2000/svg">
<g clip-path="url(#clip0_1772_10945)">
<path d="M22.8125 63.6499C22.8125 64.1354 23.206 64.5288 23.6914 64.5288H50.1231C50.6087 64.5288 51.0021 64.1354 51.0021 63.6499C51.0021 63.1644 50.6087 62.771 50.1231 62.771H23.6914C23.2059 62.771 22.8125 63.1645 22.8125 63.6499Z" fill="url(#paint0_linear_1772_10945)"/>
<path d="M42.5459 61.3015C43.0313 61.3015 43.4248 60.9081 43.4248 60.4226C43.4248 59.9371 43.0313 59.5437 42.5459 59.5437H31.2676C30.7822 59.5437 30.3887 59.9371 30.3887 60.4226C30.3887 60.9081 30.7822 61.3015 31.2676 61.3015H42.5459Z" fill="url(#paint1_linear_1772_10945)"/>
<path d="M51.0019 49.6753C51.0019 49.1898 50.6085 48.7964 50.123 48.7964H23.6914C23.206 48.7964 22.8125 49.1898 22.8125 49.6753V55.4529C22.8125 55.9384 23.206 56.3318 23.6914 56.3318H27.039C27.5244 56.3318 27.9179 55.9384 27.9179 55.4529C27.9179 54.9674 27.5244 54.574 27.039 54.574H24.5703V50.5542H49.2442V54.574H31.1536C30.6682 54.574 30.2747 54.9674 30.2747 55.4529C30.2747 55.9384 30.6682 56.3318 31.1536 56.3318H50.123C50.6085 56.3318 51.0019 55.9384 51.0019 55.4529V49.6753Z" fill="url(#paint2_linear_1772_10945)"/>
<path d="M70.5102 23.2124C70.1668 22.8693 69.6104 22.8693 69.2672 23.2124C68.924 23.5558 68.924 24.1122 69.2672 24.4554C71.9024 27.0905 71.9024 31.3783 69.2672 34.0135C68.924 34.3568 68.924 34.9132 69.2672 35.2565C69.4389 35.428 69.6639 35.5138 69.8888 35.5138C70.1136 35.5138 70.3386 35.428 70.5103 35.2565C73.8307 31.9359 73.8307 26.533 70.5102 23.2124Z" fill="url(#paint3_linear_1772_10945)"/>
<path d="M68.0043 25.7183C67.661 25.3752 67.1046 25.3752 66.7613 25.7183C66.4181 26.0616 66.4181 26.618 66.7613 26.9613C68.0149 28.2147 68.0149 30.2545 66.7613 31.5082C66.4181 31.8514 66.4181 32.4079 66.7615 32.7511C66.933 32.9226 67.1579 33.0084 67.3829 33.0084C67.6078 33.0084 67.8328 32.9226 68.0045 32.7509C69.9432 30.812 69.9432 27.6571 68.0043 25.7183Z" fill="url(#paint4_linear_1772_10945)"/>
<path d="M61.6427 25.4029H59.5635V21.6893C59.5635 20.8401 59.1788 20.0546 58.508 19.5338C57.8371 19.0133 56.9805 18.8355 56.1582 19.0461L54.5279 19.4636V18.7898C54.5279 18.7474 54.524 18.706 54.5181 18.6652C54.3947 16.9896 52.9929 15.6636 51.2863 15.6636H16.2414C14.4541 15.6636 13 17.1178 13 18.9051V67.7985C13 69.5858 14.4541 71.04 16.2414 71.04L51.2863 71.0406C53.0738 71.0406 54.5279 69.5864 54.5279 67.7989V42.038C54.5279 41.5525 54.1345 41.1591 53.649 41.1591C53.1635 41.1591 52.7701 41.5525 52.7701 42.038V67.7988C52.7701 68.6169 52.1044 69.2827 51.2863 69.2827H21.0432V17.4214H51.2863C52.1044 17.4214 52.7701 18.0871 52.7701 18.9052V19.9138L37.5682 23.807H33.7572C32.371 23.807 31.2433 24.9347 31.2433 26.3209V32.1482C31.2433 33.5345 32.3711 34.6622 33.7572 34.6622H36.3095L33.6614 40.4413C33.3972 41.0178 33.3797 41.6602 33.612 42.2505C33.8444 42.8405 34.2954 43.2985 34.8817 43.5402L36.6612 44.2735C36.9444 44.3902 37.2393 44.4454 37.5302 44.4454C38.4231 44.4454 39.2804 43.9254 39.6577 43.065L41.3275 39.2565L45.8303 36.7781L56.1584 39.4231C56.3851 39.4811 56.6144 39.5097 56.8416 39.5097C57.439 39.5097 58.0223 39.3123 58.5083 38.9353C59.179 38.4148 59.5638 37.6291 59.5638 36.7799V33.0664H61.6429C62.861 33.0664 63.8519 32.0755 63.8519 30.8574V27.612C63.8517 26.3938 62.8607 25.4029 61.6427 25.4029ZM14.7578 67.7985V18.9051C14.7578 18.087 15.4233 17.4214 16.2414 17.4214H19.2849V69.2822H16.2414C15.4233 69.2822 14.7578 68.6166 14.7578 67.7985ZM33.0011 32.1482V26.3209C33.0011 25.904 33.3404 25.5648 33.7572 25.5648H36.8001V32.9043H33.7572C33.3403 32.9043 33.0011 32.5651 33.0011 32.1482ZM40.2183 37.8603C40.0488 37.9536 39.9149 38.1002 39.8372 38.2774L38.0476 42.3591C37.928 42.6321 37.6064 42.7619 37.3307 42.6482L35.5512 41.915C35.4109 41.8572 35.3031 41.7476 35.2474 41.6064C35.1919 41.4653 35.1961 41.3115 35.2592 41.1736L38.172 34.8168L43.3421 36.1408L40.2183 37.8603ZM57.4302 37.5465C57.1916 37.7318 56.8866 37.7951 56.5942 37.72L38.558 33.101V25.3681L56.5942 20.749C56.8872 20.6737 57.1916 20.7372 57.4302 20.9224C57.6688 21.1077 57.8057 21.3872 57.8057 21.6892V36.7796C57.8057 37.0819 57.6688 37.3614 57.4302 37.5465ZM62.0939 30.8573C62.0939 31.1061 61.8915 31.3085 61.6427 31.3085H59.5635V27.1607H61.6427C61.8915 27.1607 62.0939 27.3631 62.0939 27.6119V30.8573Z" fill="url(#paint5_linear_1772_10945)"/>
</g>
<defs>
<linearGradient id="paint0_linear_1772_10945" x1="29.8736" y1="62.55" x2="29.9379" y2="65.3285" gradientUnits="userSpaceOnUse">
<stop stop-color="#23ADA4"/>
<stop offset="1" stop-color="#23ADA4"/>
</linearGradient>
<linearGradient id="paint1_linear_1772_10945" x1="33.6541" y1="59.3227" x2="33.7927" y2="62.0958" gradientUnits="userSpaceOnUse">
<stop stop-color="#23ADA4"/>
<stop offset="1" stop-color="#23ADA4"/>
</linearGradient>
<linearGradient id="paint2_linear_1772_10945" x1="29.8736" y1="47.8491" x2="31.0431" y2="59.6506" gradientUnits="userSpaceOnUse">
<stop stop-color="#23ADA4"/>
<stop offset="1" stop-color="#23ADA4"/>
</linearGradient>
<linearGradient id="paint3_linear_1772_10945" x1="70.0094" y1="21.3764" x2="79.8235" y2="29.7887" gradientUnits="userSpaceOnUse">
<stop stop-color="#23ADA4"/>
<stop offset="1" stop-color="#23ADA4"/>
</linearGradient>
<linearGradient id="paint4_linear_1772_10945" x1="67.244" y1="24.5122" x2="73.2033" y2="30.805" gradientUnits="userSpaceOnUse">
<stop stop-color="#23ADA4"/>
<stop offset="1" stop-color="#23ADA4"/>
</linearGradient>
<linearGradient id="paint5_linear_1772_10945" x1="25.7378" y1="8.70242" x2="56.1395" y2="84.0077" gradientUnits="userSpaceOnUse">
<stop stop-color="#23ADA4"/>
<stop offset="1" stop-color="#23ADA4"/>
</linearGradient>
<clipPath id="clip0_1772_10945">
<rect width="60" height="60" fill="white" transform="translate(13 13.3521)"/>
</clipPath>
</defs>
</svg>
