<svg width="86" height="86" viewBox="0 0 86 86" fill="none" xmlns="http://www.w3.org/2000/svg">
<path d="M60.8725 67.3881H59.3328V65.4797C59.3328 62.6435 58.2762 59.8871 56.4228 57.8528V50.8935C56.4228 50.3752 56.0027 49.955 55.4844 49.955H50.5475C51.5861 48.0955 52.1476 45.8841 52.1476 43.5587C52.1476 38.3137 52.1476 32.3691 43.1969 32.3691C34.2429 32.3691 34.2429 38.3137 34.2429 43.5587C34.2429 45.8816 34.8048 48.0932 35.8442 49.955H30.9093C30.391 49.955 29.9709 50.3752 29.9709 50.8935V57.8528C28.1155 59.889 27.0576 62.6455 27.0576 65.4797V67.3881H25.5213C25.003 67.3881 24.5829 67.8082 24.5829 68.3265V72.0503C24.5829 72.5686 25.003 72.9887 25.5213 72.9887H54.3152C54.8335 72.9887 55.2536 72.5686 55.2536 72.0503C55.2536 71.532 54.8335 71.1118 54.3152 71.1118H26.4597V69.2648H40.6657H45.7282H59.9341V71.1118H57.0192C56.5009 71.1118 56.0807 71.532 56.0807 72.0503C56.0807 72.5686 56.5009 72.9887 57.0192 72.9887H60.8725C61.3909 72.9887 61.811 72.5686 61.811 72.0503V68.3265C61.811 67.8082 61.3909 67.3881 60.8725 67.3881ZM43.1969 34.2459C49.7154 34.2459 50.2414 37.3887 50.2694 42.9675C49.3904 43.245 48.4739 43.3877 47.5353 43.3877C44.3859 43.3877 41.5067 41.7927 39.8333 39.1209C39.6581 38.8412 39.3529 38.6753 39.0188 38.6808C38.6888 38.6876 38.3866 38.8671 38.223 39.1538C37.682 40.1017 36.9753 40.9395 36.1415 41.6327C36.2775 36.8902 37.2152 34.2459 43.1969 34.2459ZM39.0703 41.2693C41.1396 43.7933 44.2128 45.2645 47.5352 45.2645C48.4407 45.2645 49.3299 45.1539 50.1935 44.9386C49.9825 46.8209 49.3408 48.5562 48.3293 49.9549H38.0618C36.8758 48.3121 36.1984 46.2101 36.1272 43.9543C37.2669 43.2441 38.2637 42.3336 39.0703 41.2693ZM39.7273 67.3881H28.9346V65.4797C28.9346 63.9547 29.3001 62.4592 29.971 61.1351V65.3036C29.971 65.8219 30.3911 66.242 30.9095 66.242H39.7273V67.3881ZM44.7898 67.3881H41.6042V64.2722H44.7898V67.3881ZM45.7282 62.3953H40.6657C40.1473 62.3953 39.7272 62.8154 39.7272 63.3337V64.3652H31.8478V51.8319H54.5459V64.3652H46.6666V63.3337C46.6666 62.8154 46.2465 62.3953 45.7282 62.3953ZM57.4561 67.3881H46.6666V66.242H55.4845C56.0028 66.242 56.4229 65.8219 56.4229 65.3036V61.1377C57.0917 62.4605 57.4561 63.9548 57.4561 65.4797V67.3881ZM35.1281 24.5432L36.1891 24.782C36.2077 24.8284 36.2267 24.8747 36.2463 24.9206L35.6662 25.8415C35.4711 26.1513 35.4739 26.5463 35.6736 26.8532C36.3516 27.896 37.2612 28.8056 38.304 29.4836C38.611 29.6832 39.0059 29.6861 39.3157 29.4908L40.237 28.9105C40.2826 28.93 40.3285 28.9491 40.3746 28.9677L40.614 30.0294C40.6947 30.3878 40.9771 30.666 41.3367 30.7413C41.9461 30.8693 42.5721 30.9341 43.197 30.9341C43.8236 30.9341 44.4488 30.8692 45.0552 30.7411C45.4134 30.6654 45.695 30.3882 45.7762 30.0312L46.0182 28.9682C46.0645 28.9495 46.1105 28.9303 46.1564 28.9107L47.0741 29.4902C47.3839 29.6859 47.7794 29.6832 48.0867 29.4836C49.1417 28.7975 50.0274 27.9132 50.7192 26.855C50.9203 26.5474 50.9233 26.1506 50.7269 25.84L50.145 24.9197C50.1643 24.8742 50.1833 24.8284 50.2019 24.7823L51.2629 24.543C51.6213 24.4623 51.8995 24.1799 51.9748 23.8204C52.105 23.2002 52.171 22.5744 52.171 21.96C52.171 21.3478 52.105 20.7231 51.9748 20.1029C51.8995 19.7441 51.6222 19.462 51.2647 19.3807L50.2017 19.1387C50.1833 19.0932 50.1644 19.048 50.1452 19.0031L50.7268 18.0833C50.9232 17.7727 50.9203 17.376 50.7192 17.0684C50.0292 16.0127 49.1442 15.1276 48.0887 14.4377C47.7811 14.2366 47.3843 14.2336 47.0737 14.4301L46.1539 15.0117C46.109 14.9925 46.0638 14.9736 46.0183 14.9554L45.7763 13.8922C45.6951 13.5352 45.4134 13.2579 45.0552 13.1823C43.8437 12.9265 42.5573 12.926 41.3369 13.1821C40.9774 13.2575 40.695 13.5357 40.6142 13.8941L40.3748 14.9558C40.329 14.9743 40.2835 14.9932 40.2382 15.0125L39.3173 14.4302C39.0066 14.2338 38.61 14.2369 38.3023 14.4379C37.2443 15.1295 36.3598 16.0152 35.6738 17.0704C35.4743 17.3773 35.4714 17.7723 35.6666 18.082L36.2463 19.0024C36.227 19.0479 36.2081 19.0935 36.1897 19.1392L35.1266 19.3807C34.7689 19.4619 34.4914 19.7441 34.4161 20.103C34.2881 20.7127 34.2232 21.3374 34.2232 21.9601C34.2232 22.585 34.2881 23.2109 34.4161 23.8205C34.4913 24.18 34.7696 24.4625 35.1281 24.5432ZM36.1552 21.0717L37.1067 20.8556C37.4322 20.7817 37.6939 20.5404 37.7941 20.2219C37.886 19.9295 38.0045 19.6432 38.1464 19.3709C38.3005 19.075 38.2859 18.7194 38.108 18.4371L37.5891 17.6133C37.9531 17.1451 38.378 16.7197 38.847 16.3536L39.6693 16.8736C39.9506 17.0515 40.3051 17.0671 40.6009 16.9145C40.8766 16.7725 41.1677 16.6513 41.4664 16.5547C41.7818 16.4527 42.02 16.1917 42.0929 15.8684L42.3064 14.9216C42.8968 14.8481 43.4987 14.8482 44.0859 14.9215L44.3019 15.8702C44.3752 16.1929 44.6131 16.4529 44.9279 16.5547C45.2281 16.652 45.5171 16.7723 45.7866 16.9127C46.0831 17.0671 46.4391 17.0522 46.7217 16.8736L47.5447 16.3533C48.0165 16.7196 48.4377 17.1409 48.8042 17.6128L48.2839 18.4358C48.1053 18.7182 48.0903 19.0744 48.2448 19.3709C48.385 19.6402 48.5056 19.9293 48.6029 20.2297C48.7047 20.5445 48.9648 20.7823 49.2874 20.8556L50.2371 21.0718C50.2754 21.3704 50.2946 21.6676 50.2946 21.9604C50.2946 22.2541 50.2753 22.5519 50.2372 22.8509L49.2893 23.0647C48.9659 23.1376 48.7051 23.3757 48.603 23.691C48.5037 23.9974 48.3833 24.2875 48.2449 24.553C48.0904 24.8495 48.1054 25.2056 48.284 25.488L48.804 26.3104C48.438 26.7792 48.0129 27.204 47.5449 27.5678L46.7247 27.0498C46.4434 26.8723 46.0892 26.8567 45.7937 27.0091C45.5183 27.1511 45.2271 27.2722 44.928 27.369C44.6132 27.4709 44.3755 27.7309 44.3021 28.0535L44.0861 29.0023C43.4993 29.0755 42.8971 29.0756 42.3068 29.002L42.0932 28.0553C42.0204 27.732 41.7822 27.4711 41.4669 27.369C41.1679 27.2721 40.8766 27.1511 40.6013 27.0091C40.306 26.8567 39.9521 26.872 39.6711 27.0491L38.8473 27.5681C38.3787 27.2039 37.9538 26.779 37.5896 26.3105L38.1086 25.4866C38.2865 25.2043 38.3011 24.8488 38.1468 24.5528C38.0068 24.2841 37.8882 23.9966 37.7946 23.6985C37.6943 23.3794 37.4318 23.1379 37.1054 23.0644L36.1557 22.8506C36.1189 22.5555 36.1004 22.2577 36.1004 21.9601C36.0998 21.6636 36.1184 21.3664 36.1552 21.0717ZM43.1969 26.2437C45.5571 26.2437 47.4771 24.3221 47.4771 21.9601C47.4771 19.6 45.557 17.68 43.1969 17.68C40.835 17.68 38.9134 19.6001 38.9134 21.9601C38.9135 24.322 40.835 26.2437 43.1969 26.2437ZM43.1969 19.5567C44.5222 19.5567 45.6003 20.6348 45.6003 21.9601C45.6003 23.2871 44.5222 24.3668 43.1969 24.3668C41.8699 24.3668 40.7902 23.2871 40.7902 21.9601C40.7902 20.6348 41.8699 19.5567 43.1969 19.5567ZM25.809 48.2542C26.7114 48.101 27.3999 47.3419 27.3999 46.4289V45.397C27.9024 45.0971 28.2404 44.553 28.2404 43.9308C28.2404 43.1982 28.5261 42.8254 29.1206 42.1173C29.8818 41.2106 30.9245 39.9689 30.9245 37.3336C30.9245 33.0319 27.3577 29.5322 22.9736 29.5322C18.5877 29.5322 15.0195 33.0319 15.0195 37.3336C15.0195 39.9688 16.062 41.2105 16.8234 42.1173C17.4179 42.8254 17.7036 43.1982 17.7036 43.9308C17.7036 44.5523 18.0414 45.096 18.5441 45.3961V46.4289C18.5441 47.3419 19.2325 48.101 20.135 48.2542C20.2994 49.6042 21.5095 50.6559 22.9738 50.6559C24.4361 50.6559 25.6448 49.6042 25.809 48.2542ZM19.5772 43.7664C19.5264 42.4181 18.8553 41.6188 18.2606 40.9104C17.559 40.0747 16.8962 39.2854 16.8962 37.3336C16.8962 34.0668 19.6224 31.4091 22.9735 31.4091C26.3227 31.4091 29.0476 34.0668 29.0476 37.3336C29.0476 39.2854 28.3849 40.0747 27.6832 40.9104C27.0883 41.6188 26.4173 42.4181 26.3666 43.7664H19.5772ZM20.4689 46.4073C20.446 46.4073 20.4302 46.4012 20.4207 46.3957V45.6432H25.523V46.3957C25.5136 46.4011 25.4977 46.4073 25.4749 46.4073H20.4689ZM22.9735 48.7791C22.584 48.7791 22.2395 48.5728 22.0824 48.2841H23.8616C23.7051 48.5728 23.3618 48.7791 22.9735 48.7791ZM70.7071 33.7031L68.7106 31.71C68.5347 31.5343 68.2962 31.4357 68.0476 31.4357H56.7832C56.2648 31.4357 55.8447 31.8558 55.8447 32.3741V47.814C55.8447 48.3323 56.2648 48.7525 56.7832 48.7525H70.044C70.5623 48.7525 70.9824 48.3323 70.9824 47.814V34.3672C70.9825 34.1181 70.8835 33.8791 70.7071 33.7031ZM69.1058 46.8757H57.7217V33.3125H67.6595L69.1058 34.7564V46.8757ZM67.4397 37.7987L62.623 43.1502C62.4447 43.3482 62.1909 43.4609 61.9255 43.4609C61.9141 43.4609 61.9029 43.4607 61.8915 43.4603C61.6138 43.4503 61.3549 43.3177 61.1844 43.0983L59.3441 40.7298C59.026 40.3206 59.1 39.731 59.5093 39.4131C59.9185 39.0952 60.5081 39.169 60.826 39.5783L61.9782 41.0611L66.0445 36.5432C66.3913 36.158 66.9846 36.1268 67.3699 36.4734C67.7553 36.8201 67.7865 37.4134 67.4397 37.7987Z" fill="url(#paint0_linear_1772_10958)"/>
<defs>
<linearGradient id="paint0_linear_1772_10958" x1="29.0375" y1="5.44814" x2="61.6063" y2="87.3911" gradientUnits="userSpaceOnUse">
<stop stop-color="#23ADA4"/>
<stop offset="1" stop-color="#23ADA4"/>
</linearGradient>
</defs>
</svg>
