<svg width="80" height="80" viewBox="0 0 80 80" fill="none" xmlns="http://www.w3.org/2000/svg">
<path d="M57.4002 13.4915H53.9202V11.7515C53.9202 10.7915 53.1402 10.0115 52.1802 10.0115C51.2202 10.0115 50.4402 10.7915 50.4402 11.7515V13.4915H29.5602V11.7515C29.5602 10.7915 28.7802 10.0115 27.8202 10.0115C26.8602 10.0115 26.0802 10.7915 26.0802 11.7515V13.4915H22.6002C16.8342 13.4915 12.1602 18.1655 12.1602 23.9315V58.7255C12.1602 64.4915 16.8342 69.1655 22.6002 69.1655H57.4002C63.1662 69.1655 67.8402 64.4915 67.8402 58.7255V23.9255C67.8342 18.1655 63.1602 13.4915 57.4002 13.4915ZM64.3542 58.7195C64.3482 62.5595 61.2342 65.6735 57.3942 65.6795H22.6002C18.7602 65.6735 15.6462 62.5595 15.6402 58.7195V30.8855H64.3542V58.7195ZM64.3542 27.4055H15.6462V23.9255C15.6522 20.0855 18.7662 16.9715 22.6062 16.9655H26.0862V18.7055C26.0862 19.6655 26.8662 20.4455 27.8262 20.4455C28.7862 20.4455 29.5662 19.6655 29.5662 18.7055V16.9655H50.4402V18.7055C50.4402 19.6655 51.2202 20.4455 52.1802 20.4455C53.1402 20.4455 53.9202 19.6655 53.9202 18.7055V16.9655H57.4002C61.2402 16.9715 64.3542 20.0855 64.3602 23.9255V27.4055H64.3542ZM29.5602 48.2855C29.5602 47.3255 30.3402 46.5455 31.3002 46.5455H38.2602V39.5855C38.2602 38.6255 39.0402 37.8455 40.0002 37.8455C40.9602 37.8455 41.7402 38.6255 41.7402 39.5855V46.5455H48.7002C49.6602 46.5455 50.4402 47.3255 50.4402 48.2855C50.4402 49.2455 49.6602 50.0255 48.7002 50.0255H41.7402V56.9855C41.7402 57.9455 40.9602 58.7255 40.0002 58.7255C39.0402 58.7255 38.2602 57.9455 38.2602 56.9855V50.0255H31.3002C30.3402 50.0255 29.5602 49.2455 29.5602 48.2855Z" fill="url(#paint0_linear_1772_10938)"/>
<defs>
<linearGradient id="paint0_linear_1772_10938" x1="26.1073" y1="2.57554" x2="58.0051" y2="83.5645" gradientUnits="userSpaceOnUse">
<stop stop-color="#23ADA4"/>
<stop offset="1" stop-color="#23ADA4"/>
</linearGradient>
</defs>
</svg>
