<svg width="68" height="172" viewBox="0 0 68 172" fill="none" xmlns="http://www.w3.org/2000/svg">
<path d="M2.41328 -31.3696C12.8284 -59.9625 54.9146 -72.6671 107.425 -67.0891C136.935 -110.935 173.758 -135.026 202.368 -124.605C230.967 -114.189 243.671 -72.0885 238.085 -19.564C282.02 9.96191 306.173 46.833 295.741 75.4735C285.31 104.109 243.114 116.809 190.494 111.167C160.979 155.038 124.144 179.147 95.5255 168.723C66.8951 158.294 54.1939 116.111 59.8275 63.5038C16.0459 34.0055 -7.99941 -2.78172 2.41328 -31.3696ZM237.927 -18.1239C235.561 2.94558 230.271 25.6497 221.9 48.6306L221.203 50.5241C212.962 72.7141 202.691 92.8132 191.299 109.962C206.566 111.556 220.926 111.595 233.85 110.138C265.051 106.62 287.455 94.4742 294.536 75.0345C301.617 55.5946 292.274 31.8847 270.644 9.12392C261.68 -0.309552 250.651 -9.52162 237.927 -18.1239ZM61.0321 64.3106C59.4411 79.5659 59.4049 93.9166 60.861 106.833C64.3786 138.034 76.5248 160.437 95.9645 167.518C115.404 174.599 139.114 165.255 161.875 143.626C171.283 134.685 180.472 123.691 189.055 111.009C168.043 108.631 145.411 103.347 122.504 95.0039L120.611 94.3073C98.3603 86.0435 78.212 75.7391 61.0321 64.3106ZM108.058 -65.7309C96.2483 -48.0636 85.6203 -27.1923 77.1999 -4.0748C68.7942 19.0025 63.5128 41.7806 61.1865 62.8735C78.8752 74.7098 99.7815 85.3626 122.943 93.7991C146.01 102.201 168.778 107.48 189.862 109.808C201.661 92.1491 212.281 71.292 220.695 48.1916C229.124 25.0508 234.411 2.21092 236.727 -18.9306C219.089 -30.7029 198.267 -41.2977 175.211 -49.696C152.059 -58.1289 129.208 -63.4165 108.058 -65.7309ZM201.93 -123.401C182.49 -130.482 158.78 -121.139 136.019 -99.5094C126.62 -90.5775 117.44 -79.5972 108.865 -66.9316C129.943 -64.5671 152.658 -59.2754 175.65 -50.9009L177.543 -50.2042C199.689 -41.9792 219.753 -31.7327 236.88 -20.3682C238.453 -35.5584 238.484 -49.8487 237.033 -62.7154C233.516 -93.9163 221.37 -116.32 201.93 -123.401ZM64.3025 -66.0345C33.1015 -62.5168 10.6978 -50.3708 3.61686 -30.931C-3.46381 -11.4912 5.88004 12.2184 27.5094 34.9791C36.4177 44.3534 47.3634 53.5097 59.9867 62.0655C62.3626 41.0453 67.6477 18.4033 75.9951 -4.5138L76.6926 -6.40728C84.94 -28.6137 95.2187 -48.7266 106.62 -65.884C91.4409 -67.4539 77.1608 -67.4842 64.3025 -66.0345Z" fill="url(#paint0_linear_2015_6437)"/>
<defs>
<linearGradient id="paint0_linear_2015_6437" x1="26.5309" y1="-91.3374" x2="289.879" y2="164.897" gradientUnits="userSpaceOnUse">
<stop stop-color="#23ADA4"/>
<stop offset="1" stop-color="#23ADA4"/>
</linearGradient>
</defs>
</svg>
