<svg width="84" height="187" viewBox="0 0 84 187" fill="none" xmlns="http://www.w3.org/2000/svg">
<path d="M18.5487 -31.3696C28.9638 -59.9625 71.05 -72.6671 123.561 -67.0891C153.071 -110.935 189.893 -135.026 218.504 -124.605C247.102 -114.189 259.806 -72.0885 254.221 -19.564C298.156 9.96191 322.308 46.833 311.876 75.4735C301.446 104.109 259.249 116.809 206.629 111.167C177.115 155.038 140.279 179.147 111.661 168.723C83.0305 158.294 70.3293 116.111 75.9628 63.5038C32.1813 34.0055 8.13597 -2.78172 18.5487 -31.3696ZM254.062 -18.1239C251.696 2.94558 246.406 25.6497 238.036 48.6306L237.338 50.5241C229.097 72.7141 218.826 92.8131 207.435 109.962C222.701 111.556 237.062 111.595 249.986 110.138C281.187 106.62 303.59 94.4742 310.671 75.0345C317.752 55.5946 308.409 31.8847 286.78 9.12392C277.815 -0.309553 266.787 -9.52163 254.062 -18.1239ZM77.1675 64.3106C75.5764 79.5659 75.5403 93.9166 76.9964 106.833C80.514 138.034 92.6602 160.437 112.1 167.518C131.54 174.599 155.249 165.255 178.01 143.626C187.419 134.685 196.607 123.691 205.19 111.009C184.178 108.631 161.546 103.347 138.639 95.0039L136.746 94.3073C114.496 86.0435 94.3473 75.7391 77.1675 64.3106ZM124.193 -65.7309C112.384 -48.0636 101.756 -27.1923 93.3353 -4.0748C84.9296 19.0025 79.6481 41.7806 77.3219 62.8735C95.0106 74.7098 115.917 85.3626 139.078 93.7991C162.145 102.201 184.913 107.48 205.998 109.808C217.797 92.1491 228.417 71.292 236.831 48.1916C245.26 25.0508 250.546 2.21092 252.862 -18.9306C235.225 -30.7029 214.403 -41.2977 191.346 -49.696C168.194 -58.1289 145.343 -63.4165 124.193 -65.7309ZM218.065 -123.401C198.626 -130.482 174.916 -121.139 152.155 -99.5094C142.756 -90.5775 133.576 -79.5972 125.001 -66.9316C146.078 -64.5671 168.794 -59.2754 191.785 -50.9009L193.678 -50.2042C215.825 -41.9792 235.888 -31.7327 253.015 -20.3682C254.588 -35.5584 254.619 -49.8487 253.169 -62.7154C249.651 -93.9163 237.505 -116.32 218.065 -123.401ZM80.4379 -66.0345C49.2369 -62.5168 26.8332 -50.3708 19.7522 -30.931C12.6716 -11.4912 22.0154 12.2184 43.6448 34.9791C52.5531 44.3534 63.4988 53.5097 76.122 62.0655C78.4979 41.0453 83.7831 18.4033 92.1304 -4.5138L92.828 -6.40728C101.075 -28.6137 111.354 -48.7266 122.755 -65.884C107.576 -67.4539 93.2962 -67.4842 80.4379 -66.0345Z" fill="url(#paint0_linear_2015_6437)"/>
<defs>
<linearGradient id="paint0_linear_2015_6437" x1="42.6662" y1="-91.3374" x2="306.014" y2="164.897" gradientUnits="userSpaceOnUse">
<stop stop-color="#23ADA4"/>
<stop offset="1" stop-color="#23ADA4"/>
</linearGradient>
</defs>
</svg>
