<svg width="91" height="120" viewBox="0 0 91 120" fill="none" xmlns="http://www.w3.org/2000/svg">
<path d="M-205.452 95.6491C-195.037 67.0559 -152.951 54.3515 -100.439 59.9296C-70.9296 16.0832 -34.1069 -8.00759 -5.4968 2.41321C23.1016 12.8301 35.8062 54.9301 30.2204 107.455C74.1552 136.981 98.3081 173.852 87.876 202.492C77.4452 231.127 35.2488 243.827 -17.3711 238.186C-46.8856 282.057 -83.721 306.166 -112.339 295.742C-140.97 285.313 -153.671 243.129 -148.037 190.522C-191.819 161.024 -215.864 124.237 -205.452 95.6491ZM30.0616 108.894C27.6956 129.964 22.4052 152.668 14.0345 175.65L13.3378 177.543C5.09645 199.733 -5.17499 219.832 -16.5665 236.981C-1.30003 238.576 13.061 238.614 25.9855 237.157C57.1864 233.639 79.59 221.493 86.6711 202.053C93.752 182.613 84.4088 158.903 62.7795 136.143C53.8148 126.709 42.7861 117.496 30.0616 108.894ZM-146.833 191.329C-148.424 206.584 -148.46 220.935 -147.004 233.851C-143.486 265.052 -131.34 287.456 -111.9 294.537C-92.4606 301.618 -68.751 292.274 -45.9903 270.644C-36.5815 261.703 -27.3937 250.709 -18.8108 238.026C-39.8227 235.649 -62.4544 230.366 -85.3609 222.023L-87.2544 221.325C-109.505 213.061 -129.653 202.758 -146.833 191.329ZM-99.8065 61.2873C-111.616 78.9548 -122.245 99.8261 -130.665 122.944C-139.071 146.021 -144.352 168.799 -146.678 189.892C-128.99 201.728 -108.083 212.381 -84.9219 220.818C-61.8556 229.219 -39.0881 234.499 -18.0037 236.827C-6.20444 219.168 4.41534 198.311 12.8296 175.211C21.2585 152.07 26.5444 129.229 28.8605 108.088C11.223 96.3155 -9.59813 85.7199 -32.6546 77.3218C-55.8061 68.8891 -78.6567 63.6018 -99.8065 61.2873ZM-5.93534 3.61679C-25.3752 -3.46389 -49.0848 5.87995 -71.8455 27.5093C-81.2446 36.4412 -90.4246 47.4214 -98.9998 60.087C-77.9221 62.4516 -55.2078 67.743 -32.2165 76.1173L-30.3221 76.8145C-8.17627 85.0393 11.8868 95.2858 29.0135 106.65C30.5865 91.4597 30.6187 77.1692 29.1681 64.3024C25.6504 33.1014 13.5045 10.6976 -5.93534 3.61679ZM-143.562 60.9842C-174.764 64.5018 -197.167 76.6478 -204.248 96.0876C-211.329 115.528 -201.986 139.238 -180.356 161.998C-171.448 171.372 -160.502 180.528 -147.879 189.083C-145.503 168.063 -140.217 145.422 -131.87 122.505L-131.173 120.612C-122.926 98.4054 -112.646 78.2921 -101.245 61.1347C-116.424 59.5647 -130.704 59.5345 -143.562 60.9842Z" fill="url(#paint0_linear_2015_6438)"/>
<defs>
<linearGradient id="paint0_linear_2015_6438" x1="-181.334" y1="35.6811" x2="82.0139" y2="291.916" gradientUnits="userSpaceOnUse">
<stop stop-color="#23ADA4"/>
<stop offset="1" stop-color="#23ADA4"/>
</linearGradient>
</defs>
</svg>
