<svg width="20" height="20" viewBox="0 0 20 20" fill="none" xmlns="http://www.w3.org/2000/svg">
<g clip-path="url(#clip0_274_12362)">
<path d="M10.765 13.8258L7.70487 16.8859C7.70487 16.8859 7.70487 16.886 7.7048 16.886C7.7048 16.886 7.7048 16.8861 7.70473 16.8861C6.43929 18.1516 4.38014 18.1517 3.11455 16.8861C2.50145 16.273 2.16389 15.4579 2.16389 14.5909C2.16389 13.7241 2.50145 12.9091 3.11434 12.296C3.11441 12.2959 3.11448 12.2958 3.11455 12.2958L6.17465 9.2356C6.59711 8.81307 6.59711 8.12798 6.17457 7.70552C5.75211 7.28306 5.06703 7.28306 4.64449 7.70552L1.5844 10.7657C1.58418 10.7659 1.58396 10.7662 1.58375 10.7664C0.562466 11.788 0 13.1463 0 14.5909C0 16.0359 0.562682 17.3944 1.58447 18.4162C2.63915 19.4708 4.02439 19.9981 5.40971 19.9981C6.79503 19.9981 8.18035 19.4708 9.23489 18.4162C9.23496 18.4162 9.23496 18.416 9.23496 18.416L12.2951 15.3559C12.7175 14.9334 12.7175 14.2483 12.295 13.8258C11.8726 13.4033 11.1876 13.4033 10.765 13.8258Z" fill="url(#paint0_linear_274_12362)"/>
<path d="M19.9999 5.41006C19.9999 3.96509 19.4371 2.6066 18.4153 1.58481C16.306 -0.5244 12.874 -0.524328 10.7649 1.58481C10.7648 1.58496 10.7647 1.58503 10.7646 1.58517L7.7046 4.64512C7.28206 5.06758 7.28206 5.75274 7.7046 6.17521C7.91594 6.38655 8.19277 6.49214 8.46967 6.49214C8.74651 6.49214 9.02348 6.38647 9.23468 6.17521L12.2947 3.11526C12.2948 3.11511 12.2949 3.11504 12.2951 3.11489C13.5605 1.84945 15.6197 1.84938 16.8852 3.11489C17.4983 3.728 17.836 4.54313 17.836 5.41006C17.836 6.27691 17.4984 7.0919 16.8855 7.705L16.8852 7.70522L13.8251 10.7654C13.4027 11.1878 13.4027 11.8729 13.8252 12.2955C14.0365 12.5067 14.3134 12.6124 14.5902 12.6124C14.8671 12.6124 15.144 12.5067 15.3553 12.2955L18.4154 9.2353C18.4156 9.23508 18.4158 9.2348 18.416 9.23458C19.4373 8.21294 19.9999 6.85467 19.9999 5.41006Z" fill="url(#paint1_linear_274_12362)"/>
<path d="M6.17481 13.8257C6.38608 14.0369 6.66298 14.1426 6.93982 14.1426C7.21672 14.1426 7.49363 14.0369 7.70489 13.8257L13.8252 7.70533C14.2478 7.28287 14.2478 6.59778 13.8252 6.17525C13.4028 5.75278 12.7177 5.75278 12.2951 6.17525L6.17481 12.2955C5.75228 12.7181 5.75228 13.4032 6.17481 13.8257Z" fill="url(#paint2_linear_274_12362)"/>
</g>
<defs>
<linearGradient id="paint0_linear_274_12362" x1="3.15912" y1="5.8036" x2="9.6578" y2="23.3367" gradientUnits="userSpaceOnUse">
<stop stop-color="#23ADA4"/>
<stop offset="1" stop-color="#23ADA4"/>
</linearGradient>
<linearGradient id="paint1_linear_274_12362" x1="10.5469" y1="-1.58214" x2="17.0455" y2="15.9511" gradientUnits="userSpaceOnUse">
<stop stop-color="#23ADA4"/>
<stop offset="1" stop-color="#23ADA4"/>
</linearGradient>
<linearGradient id="paint2_linear_274_12362" x1="7.933" y1="4.81704" x2="12.2031" y2="16.3355" gradientUnits="userSpaceOnUse">
<stop stop-color="#23ADA4"/>
<stop offset="1" stop-color="#23ADA4"/>
</linearGradient>
<clipPath id="clip0_274_12362">
<rect width="20" height="20" fill="white"/>
</clipPath>
</defs>
</svg>
