<svg width="20" height="20" viewBox="0 0 20 20" fill="none" xmlns="http://www.w3.org/2000/svg">
<path d="M16.6673 8.33335C16.6673 12.4942 12.0515 16.8275 10.5015 18.1659C10.3571 18.2744 10.1813 18.3331 10.0007 18.3331C9.81999 18.3331 9.64421 18.2744 9.49982 18.1659C7.94982 16.8275 3.33398 12.4942 3.33398 8.33335C3.33398 6.56524 4.03636 4.86955 5.28661 3.61931C6.53685 2.36907 8.23254 1.66669 10.0007 1.66669C11.7688 1.66669 13.4645 2.36907 14.7147 3.61931C15.9649 4.86955 16.6673 6.56524 16.6673 8.33335Z" stroke="url(#paint0_linear_1772_12570)" stroke-width="1.66667" stroke-linecap="round" stroke-linejoin="round"/>
<path d="M10 10.8333C11.3807 10.8333 12.5 9.71402 12.5 8.33331C12.5 6.9526 11.3807 5.83331 10 5.83331C8.61929 5.83331 7.5 6.9526 7.5 8.33331C7.5 9.71402 8.61929 10.8333 10 10.8333Z" stroke="url(#paint1_linear_1772_12570)" stroke-width="1.66667" stroke-linecap="round" stroke-linejoin="round"/>
<defs>
<linearGradient id="paint0_linear_1772_12570" x1="6.67382" y1="-0.428366" x2="16.7289" y2="21.2701" gradientUnits="userSpaceOnUse">
<stop stop-color="#23ADA4"/>
<stop offset="1" stop-color="#23ADA4"/>
</linearGradient>
<linearGradient id="paint1_linear_1772_12570" x1="8.75244" y1="5.20479" x2="11.3297" y2="12.1568" gradientUnits="userSpaceOnUse">
<stop stop-color="#23ADA4"/>
<stop offset="1" stop-color="#23ADA4"/>
</linearGradient>
</defs>
</svg>
