<svg width="16" height="16" viewBox="0 0 16 16" fill="none" xmlns="http://www.w3.org/2000/svg">
<path d="M7.42016 13.8339H3.22016C2.58772 13.8322 1.98168 13.5802 1.53448 13.1329C1.08727 12.6857 0.835255 12.0797 0.833496 11.4473C0.833443 10.3933 1.24938 9.38189 1.99089 8.63289C2.73241 7.88388 3.73958 7.45781 4.7935 7.44727H5.84683C6.56939 7.44898 7.27742 7.65037 7.89271 8.02919C8.50801 8.40802 9.00663 8.94953 9.3335 9.59393C9.39107 9.71037 9.40172 9.84446 9.36326 9.96853C9.3248 10.0926 9.24016 10.1971 9.12683 10.2606C9.00933 10.316 8.87521 10.3248 8.7515 10.2852C8.62778 10.2456 8.52368 10.1606 8.46016 10.0473C8.21216 9.57034 7.83787 9.17074 7.37817 8.8921C6.91847 8.61346 6.39105 8.4665 5.8535 8.46727H4.7935C4.00784 8.46903 3.25497 8.78237 2.70005 9.33854C2.14514 9.8947 1.83349 10.6483 1.8335 11.4339C1.8335 11.8017 1.97959 12.1544 2.23964 12.4145C2.49969 12.6745 2.8524 12.8206 3.22016 12.8206H7.42016C7.78782 12.8203 8.14033 12.674 8.40016 12.4139C8.47596 12.3388 8.54101 12.2535 8.5935 12.1606C8.66127 12.0519 8.76772 11.9728 8.89142 11.9394C9.01511 11.906 9.14687 11.9207 9.26016 11.9806C9.37014 12.0473 9.45021 12.1537 9.48373 12.2779C9.51725 12.402 9.50165 12.5343 9.44016 12.6473C9.34222 12.8128 9.22348 12.9652 9.08683 13.1006C8.87098 13.3265 8.61263 13.5076 8.32662 13.6335C8.04061 13.7593 7.73257 13.8274 7.42016 13.8339Z" fill="#FFA500"/>
<path d="M5.33366 8.48081C4.64246 8.48081 3.9668 8.27576 3.39218 7.89161C2.81756 7.50746 2.36981 6.96148 2.10561 6.32277C1.8414 5.68406 1.77261 4.98133 1.90795 4.3035C2.04328 3.62568 2.37665 3.00324 2.86587 2.51496C3.35509 2.02667 3.97816 1.69449 4.65624 1.56045C5.33432 1.42642 6.03692 1.49655 6.67513 1.76197C7.31333 2.0274 7.85846 2.47618 8.2415 3.05154C8.62455 3.62689 8.82831 4.30294 8.82699 4.99414C8.82699 5.45258 8.73659 5.90652 8.56095 6.32997C8.38531 6.75343 8.12789 7.13809 7.80342 7.46195C7.47894 7.7858 7.09379 8.04249 6.67 8.21732C6.24621 8.39215 5.7921 8.48169 5.33366 8.48081ZM5.33366 2.48081C4.84053 2.48081 4.35847 2.62704 3.94844 2.90101C3.53841 3.17498 3.21884 3.56439 3.03012 4.01998C2.84141 4.47558 2.79203 4.97691 2.88824 5.46057C2.98444 5.94423 3.22191 6.3885 3.57061 6.7372C3.91931 7.08589 4.36358 7.32336 4.84724 7.41957C5.33089 7.51577 5.83222 7.4664 6.28782 7.27768C6.74342 7.08897 7.13282 6.76939 7.40679 6.35936C7.68076 5.94934 7.82699 5.46728 7.82699 4.97414C7.82172 4.31634 7.5567 3.68728 7.08968 3.224C6.62266 2.76073 5.99148 2.50079 5.33366 2.50081V2.48081Z" fill="#FFA500"/>
<path d="M11.667 11.4212C11.5349 11.4195 11.4087 11.3663 11.3153 11.2729C11.222 11.1795 11.1687 11.0533 11.167 10.9212V9.58789C11.167 9.45528 11.2197 9.32811 11.3134 9.23434C11.4072 9.14057 11.5344 9.08789 11.667 9.08789C11.7996 9.08789 11.9268 9.14057 12.0205 9.23434C12.1143 9.32811 12.167 9.45528 12.167 9.58789V10.9212C12.1653 11.0533 12.112 11.1795 12.0186 11.2729C11.9252 11.3663 11.7991 11.4195 11.667 11.4212Z" fill="#FFA500"/>
<path d="M11.667 12.7539C11.9431 12.7539 12.167 12.53 12.167 12.2539C12.167 11.9778 11.9431 11.7539 11.667 11.7539C11.3908 11.7539 11.167 11.9778 11.167 12.2539C11.167 12.53 11.3908 12.7539 11.667 12.7539Z" fill="#FFA500"/>
<path d="M11.667 14.5C10.9748 14.5 10.2981 14.2947 9.7225 13.9101C9.14693 13.5256 8.69832 12.9789 8.43342 12.3394C8.16851 11.6999 8.0992 10.9961 8.23425 10.3172C8.36929 9.63825 8.70264 9.01461 9.19212 8.52513C9.6816 8.03564 10.3052 7.7023 10.9842 7.56725C11.6631 7.4322 12.3668 7.50152 13.0064 7.76642C13.6459 8.03133 14.1926 8.47993 14.5771 9.05551C14.9617 9.63108 15.167 10.3078 15.167 11C15.1652 11.9277 14.7959 12.8169 14.1399 13.4729C13.4839 14.1289 12.5947 14.4982 11.667 14.5ZM11.667 8.5C11.1725 8.5 10.6892 8.64662 10.2781 8.92133C9.86695 9.19603 9.54651 9.58648 9.3573 10.0433C9.16808 10.5001 9.11857 11.0028 9.21503 11.4877C9.31149 11.9727 9.5496 12.4181 9.89923 12.7678C10.2489 13.1174 10.6943 13.3555 11.1793 13.452C11.6642 13.5484 12.1669 13.4989 12.6237 13.3097C13.0805 13.1205 13.471 12.8001 13.7457 12.3889C14.0204 11.9778 14.167 11.4945 14.167 11C14.167 10.337 13.9036 9.70108 13.4348 9.23223C12.9659 8.76339 12.33 8.5 11.667 8.5Z" fill="#FFA500"/>
</svg>
