<svg width="22" height="22" viewBox="0 0 22 22" fill="none" xmlns="http://www.w3.org/2000/svg">
<g clip-path="url(#clip0_2710_7613)">
<path d="M21.8112 0.18879C21.6435 0.0211264 21.3973 -0.0409205 21.1702 0.027185L1.45269 5.94248C0.583773 6.20313 0 6.98774 0 7.89519C0 8.79006 0.600918 9.58674 1.46141 9.83261L9.78828 12.2117L12.1674 20.5386C12.4132 21.399 13.2099 22 14.1051 22C15.0123 22 15.7969 21.4162 16.0576 20.5473L21.9728 0.829712C22.0409 0.602623 21.9789 0.356455 21.8112 0.18879ZM1.28906 7.89489C1.28906 7.56141 1.50365 7.27301 1.82308 7.17719L19.092 1.99649L10.1221 10.9665L1.81552 8.59318C1.50558 8.50458 1.28906 8.21759 1.28906 7.89489ZM14.8228 20.1769C14.727 20.4963 14.4386 20.7109 14.1048 20.7109C13.7824 20.7109 13.4954 20.4944 13.4069 20.1845L11.0336 11.8779L20.0035 2.90794L14.8228 20.1769Z" fill="white"/>
</g>
<defs>
<clipPath id="clip0_2710_7613">
<rect width="22" height="22" fill="white"/>
</clipPath>
</defs>
</svg>
