<svg width="38" height="37" viewBox="0 0 38 37" fill="none" xmlns="http://www.w3.org/2000/svg">
<path d="M16.2201 1.66589C17.3247 -0.55887 20.4998 -0.554381 21.598 1.67349L25.117 8.81201C25.5545 9.69951 26.4015 10.3142 27.3809 10.455L35.2079 11.5803C37.672 11.9346 38.6574 14.9627 36.8737 16.6993L31.1871 22.2356C30.478 22.9259 30.155 23.9216 30.3238 24.8968L31.6774 32.7174C32.1017 35.1688 29.5295 37.0416 27.3268 35.8852L20.3088 32.2007C19.437 31.7431 18.3961 31.7423 17.5237 32.1987L10.4516 35.8983C8.24902 37.0506 5.68103 35.1778 6.10496 32.7285L7.46044 24.8968C7.62922 23.9216 7.30621 22.9259 6.59712 22.2356L0.910541 16.6993C-0.873173 14.9627 0.112237 11.9346 2.57634 11.5803L10.4087 10.4542C11.3852 10.3139 12.2302 9.70242 12.6689 8.81884L16.2201 1.66589Z" fill="#737373"/>
</svg>
