<svg width="38" height="37" viewBox="0 0 38 37" fill="none" xmlns="http://www.w3.org/2000/svg">
<path d="M16.2235 1.67362C17.3235 -0.557773 20.5052 -0.557773 21.6051 1.67362L25.1146 8.79272C25.5521 9.68023 26.399 10.2949 27.3785 10.4357L35.2055 11.561C37.6696 11.9153 38.655 14.9435 36.8713 16.68L31.1847 22.2163C30.4756 22.9067 30.1526 23.9023 30.3214 24.8775L31.6749 32.6981C32.0992 35.1495 29.5271 37.0224 27.3244 35.8659L20.3063 32.1815C19.4346 31.7238 18.3937 31.723 17.5212 32.1794L10.4492 35.879C8.24657 37.0313 5.67858 35.1586 6.10251 32.7092L7.458 24.8775C7.62677 23.9023 7.30377 22.9067 6.59467 22.2163L0.91057 16.6824C-0.87359 14.9454 0.112825 11.9165 2.5777 11.5632L10.4492 10.4352C11.4292 10.2947 12.2768 9.67988 12.7145 8.79195L16.2235 1.67362Z" fill="url(#paint0_linear_2075_7978)"/>
<defs>
<linearGradient id="paint0_linear_2075_7978" x1="7.73714" y1="-9.12482" x2="28.7935" y2="50.6382" gradientUnits="userSpaceOnUse">
<stop stop-color="#23ADA4"/>
<stop offset="1" stop-color="#23ADA4"/>
</linearGradient>
</defs>
</svg>
