<svg width="22" height="21" viewBox="0 0 22 21" fill="none" xmlns="http://www.w3.org/2000/svg">
<path d="M9.97421 0.560835C10.3398 -0.186904 11.4054 -0.186904 11.771 0.560835L14.3451 5.82621C14.4903 6.1232 14.7728 6.32924 15.1 6.37667L20.8622 7.21204C21.681 7.33074 22.0097 8.33569 21.4193 8.91529L17.2264 13.0315C16.9924 13.2613 16.8859 13.5911 16.9413 13.9143L17.9376 19.7186C18.078 20.5368 17.2179 21.16 16.4841 20.7716L11.3396 18.0481C11.0474 17.8934 10.6976 17.8932 10.4052 18.0474L5.23269 20.776C4.49898 21.163 3.6402 20.5399 3.78053 19.7223L4.77742 13.9143C4.8329 13.5911 4.72639 13.2613 4.49239 13.0315L0.30026 8.9161C-0.290285 8.33635 0.0387393 7.33113 0.857786 7.21277L6.64489 6.37648C6.97222 6.32917 7.255 6.12308 7.40026 5.82595L9.97421 0.560835Z" fill="url(#paint0_linear_2070_7965)"/>
<defs>
<linearGradient id="paint0_linear_2070_7965" x1="4.87108" y1="-4.16806" x2="16.3457" y2="28.1298" gradientUnits="userSpaceOnUse">
<stop stop-color="#23ADA4"/>
<stop offset="1" stop-color="#23ADA4"/>
</linearGradient>
</defs>
</svg>
