<svg width="30" height="30" viewBox="0 0 30 30" fill="none" xmlns="http://www.w3.org/2000/svg">
<path d="M27.9516 6.00684H2.0485C1.04713 6.00684 0.235352 6.81861 0.235352 7.81998V23.0726C0.235352 24.074 1.04713 24.8857 2.0485 24.8857H27.9516C28.953 24.8857 29.7648 24.074 29.7648 23.0726V7.81998C29.7648 6.81861 28.953 6.00684 27.9516 6.00684Z" fill="url(#paint0_linear_271_11406)"/>
<path fill-rule="evenodd" clip-rule="evenodd" d="M8.11101 15.2661L8.2425 14.7471C8.74769 14.5948 9.77883 14.5256 9.9726 15.0723C10.0833 15.3907 9.76499 16.7125 9.7027 17.1L9.21135 17.1069C9.10063 16.9685 9.19059 17.2246 9.11447 16.8855C8.64388 17.3076 7.64042 17.2384 7.71654 16.3872C7.79267 15.5429 8.52623 15.6536 9.32208 15.5291C9.30824 14.9893 8.63004 15.1346 8.10409 15.2592L8.11101 15.2661ZM11.8134 15.1831C11.3636 15.1831 11.2944 15.0862 10.8999 15.2592C10.9484 15.7505 11.2044 15.5568 11.5574 15.7921C12.2287 16.235 11.5089 17.6052 9.91032 17.017L10.0003 16.5187C10.4501 16.6087 10.6785 16.6986 11.0245 16.5049C11.1075 15.8059 9.86879 16.2626 10.2148 15.1415C10.4017 14.5325 11.2252 14.6156 11.9034 14.6779L11.8065 15.1831H11.8134ZM4.9207 14.1242L5.97952 14.1588L6.09025 15.8197L6.66464 14.491C6.85841 14.0135 6.72693 14.1173 7.94492 14.1312L7.39821 17.1L6.80305 17.0931L7.12831 14.9616L6.24942 17.1069L5.53661 17.0862C5.51585 16.6709 5.48125 15.2107 5.37052 14.9339L5.01066 17.0931L4.38782 17.0862L4.9207 14.1242ZM15.0176 20.4287L15.3082 20.0827C14.7269 20.0066 14.6231 20.1727 14.3601 19.7021L15.6958 19.6882C15.7788 19.5498 15.9172 19.4184 15.9864 19.2592C14.4639 19.1554 14.0349 19.5429 13.7927 18.8786H16.2356L16.5055 18.4564L13.4882 18.4426L13.3498 18.0896L16.6024 18.0758C16.7892 17.972 16.7892 17.8543 16.8377 17.6398L13.7581 17.6329C13.2044 17.6398 13.1698 17.7644 13.066 17.2592H16.9415L17.066 16.8301L15.9311 16.8163L15.8757 17.1069L15.2252 17.0793L15.6335 14.664L16.2494 14.7471C16.2494 14.7609 16.2633 14.8094 16.2633 14.8301C16.2633 14.844 16.2702 14.8647 16.2702 14.8716L16.3048 14.9962C16.4778 14.7886 16.5885 14.6363 16.9899 14.6502L16.7823 15.2107C16.6646 15.363 16.3186 15.19 16.1733 15.6052L16.8515 15.6329C16.9276 15.1969 17.0107 15.0654 17.1352 14.7125L17.1421 14.5049L12.8999 14.5118L12.8861 14.664C13.1145 14.664 13.1075 14.6225 13.239 14.7332L13.1768 15.1415C12.7477 15.2453 12.7615 14.9893 12.72 15.5498C12.7823 15.6536 12.7062 15.5983 12.8377 15.6329L13.1075 15.6398C13.5435 14.2211 14.8446 14.5325 15.1421 14.9754C15.3013 15.2107 15.4605 15.9858 15.066 16.0481L13.7442 16.062C13.8065 16.7609 14.6093 16.6156 15.1283 16.4426C15.1075 16.7332 15.1283 16.9685 14.8584 17.0654C14.6439 17.1415 14.1941 17.1208 13.9588 17.0654C13.3774 16.9339 13.1283 16.6433 13.0868 16.0135L12.8377 16.0066C12.6093 15.9028 12.7892 16.0066 12.6716 15.7229C12.5747 16.3042 12.3117 16.6779 13.0314 16.5948C12.9899 16.9408 13.0383 17.0585 12.6577 17.1C11.5505 17.2315 11.9103 16.491 12.0902 15.5014C12.374 13.9235 12.1525 14.1173 12.9553 14.1312L17.0799 14.1381L16.9968 13.709L13.0107 13.6952L13.0868 13.3491L16.8584 13.3284C16.7615 12.7402 16.7408 12.8855 15.3705 12.8855C14.6716 12.8855 13.9795 12.8855 13.2806 12.8855C13.4259 12.3803 13.3498 12.5187 14.7062 12.5187H16.5401L16.3463 12.0827L13.6889 12.0758L13.8688 11.7159L16.0902 11.7021C15.8065 11.1208 15.8203 11.2869 14.2494 11.2592C14.4501 10.7609 14.803 10.8855 15.419 10.8855C15.246 10.6087 15.1214 10.6294 15.0176 10.3941C14.7615 10.2626 14.5332 10.0273 14.2771 9.84742C12.3186 8.46334 9.66118 8.31801 7.52969 9.35607C5.61274 10.2834 3.73039 12.4287 3.75115 15.3976C3.77883 19.6398 7.50201 22.7332 11.7165 22.0135C13.6958 21.6744 14.1941 20.8716 15.0107 20.4218L15.0176 20.4287Z" fill="#E41D2C"/>
<path fill-rule="evenodd" clip-rule="evenodd" d="M19.5365 14.7262C21.6818 14.2902 21.3289 15.3491 21.1559 16.2072C21.1005 16.4633 21.1005 16.9684 20.8998 17.1069C20.8514 17.1069 20.5676 17.1138 20.54 17.0999C20.3462 17.0238 20.4361 17.2522 20.4085 16.8992C19.8272 17.2314 18.9067 17.3076 19.0175 16.3802C19.1074 15.6397 19.8548 15.5221 20.6161 15.5567C20.5884 15.01 20.0901 15.0999 19.3981 15.2729L19.5434 14.7262H19.5365ZM21.6541 14.664L22.2285 14.6709C22.2355 14.6847 22.2424 14.7055 22.2424 14.7193L22.3323 14.9754C22.4361 14.8162 22.6299 14.6778 22.9344 14.6709L22.8514 15.1622L22.5676 15.2729C22.0002 15.4598 22.0348 16.1726 21.8825 17.1069H21.2389L21.6541 14.664ZM24.706 14.138H25.2943L24.7891 17.1138C24.1317 17.1207 24.2908 17.1553 24.0832 16.9062C23.6541 17.5428 22.3669 16.9546 22.7614 15.6397C23.0521 14.657 24.0348 14.3941 24.5192 14.9754L24.713 14.1311L24.706 14.138ZM15.0244 10.401C15.1282 10.6363 15.2597 10.6155 15.4258 10.8923C14.8099 10.8923 14.4569 10.7608 14.2562 11.266C15.8272 11.2937 15.8133 11.1276 16.097 11.7089L13.8756 11.7228L13.6957 12.0826L16.3531 12.0896L16.5469 12.5255C15.9379 12.5255 15.3289 12.5255 14.713 12.5255C13.3635 12.5255 13.4327 12.3941 13.2874 12.8923H15.3773C16.7476 12.8923 16.7683 12.747 16.8652 13.3352L13.0936 13.356L13.0175 13.702L17.0036 13.7159L17.0867 14.1449L12.9621 14.138L12.9067 14.5255L17.149 14.5186L17.142 14.7262C17.4604 14.4217 17.405 14.2626 18.0002 14.0896C18.4915 13.9511 18.8029 14.055 19.2874 14.1588L19.1836 14.7954C18.3531 14.5463 17.8133 14.6086 17.6195 15.4667C17.405 16.3871 18.1317 16.7332 18.8998 16.3664C18.8306 17.0377 18.7199 17.2037 17.931 17.0999C17.3842 17.0307 17.2182 16.7678 16.9759 16.4425H15.9863L15.931 16.8231L17.0659 16.837L16.9413 17.266H13.0659C13.1697 17.7712 13.2043 17.6467 13.7579 17.6397L16.8375 17.6467C16.7822 17.8543 16.7891 17.9788 16.6022 18.0826L13.3496 18.0965L13.4881 18.4494L16.5054 18.4633L16.2355 18.8854H13.7926C14.0348 19.5428 14.4638 19.1622 15.9863 19.266C15.9171 19.4252 15.7787 19.5567 15.6957 19.6951L14.36 19.7089C14.6161 20.1726 14.7268 20.0134 15.3081 20.0896L15.0175 20.4356C16.0071 21.1622 16.7753 21.7712 18.3739 22.048C19.8272 22.2972 21.3427 22.0204 22.5123 21.446C27.578 18.9477 27.4396 11.7505 22.4708 9.36983C20.6853 8.51862 18.3185 8.4425 16.4708 9.41136C15.578 9.87502 15.3635 10.2072 15.0313 10.4079L15.0244 10.401Z" fill="#F8B02B"/>
<path fill-rule="evenodd" clip-rule="evenodd" d="M4.3877 17.0931L5.01053 17.1L5.37039 14.9409C5.48112 15.2177 5.51572 16.6779 5.53648 17.0931L6.24929 17.1139L7.12818 14.9686L6.80292 17.1L7.39808 17.107L7.94479 14.1381C6.7268 14.1243 6.85828 14.0205 6.66451 14.498L6.09012 15.8267L5.97939 14.1658L4.92057 14.1312L4.3877 17.0931Z" fill="#FEFEFE"/>
<path fill-rule="evenodd" clip-rule="evenodd" d="M23.6678 16.546C23.1488 16.0131 23.5917 15.1273 24.0761 15.245C24.5536 15.3626 24.4637 16.5322 23.6678 16.546ZM24.5121 14.9751C24.0277 14.3938 23.0519 14.6567 22.7543 15.6394C22.3599 16.9474 23.6471 17.5425 24.0761 16.9059C24.2837 17.155 24.1246 17.1135 24.782 17.1135L25.2872 14.1377H24.699L24.5052 14.982L24.5121 14.9751Z" fill="#FEFEFE"/>
<path fill-rule="evenodd" clip-rule="evenodd" d="M19.7581 16.5528C19.6612 16.0891 20.0903 15.9092 20.4986 15.9922C20.5193 16.4628 20.1872 16.7189 19.7581 16.5528ZM19.5366 14.7327L19.3913 15.2794C20.0833 15.1133 20.5885 15.0234 20.6093 15.5632C19.8481 15.5286 19.1007 15.6462 19.0107 16.3867C18.893 17.314 19.8204 17.2379 20.4017 16.9057C20.4294 17.2587 20.3394 17.0303 20.5332 17.1064C20.5609 17.1203 20.8446 17.1133 20.893 17.1133C21.1007 16.9819 21.1007 16.4698 21.1491 16.2137C21.329 15.3486 21.675 14.2967 19.5297 14.7327H19.5366Z" fill="#FEFEFE"/>
<path fill-rule="evenodd" clip-rule="evenodd" d="M9.21101 15.9714C9.22485 16.2067 9.18332 16.3866 9.03107 16.5042C8.92727 16.5804 8.61585 16.6703 8.49128 16.5527C8.10374 16.1997 8.83038 15.9644 9.20409 15.9714H9.21101ZM8.11066 15.2655C8.63661 15.1409 9.31481 14.9956 9.32865 15.5354C8.5328 15.6599 7.79924 15.5492 7.72312 16.3935C7.64007 17.2447 8.64353 17.3139 9.12104 16.8918C9.19716 17.2309 9.1072 16.9748 9.21793 17.1132L9.70928 17.1063C9.77156 16.7119 10.0899 15.397 9.97917 15.0786C9.7854 14.525 8.76118 14.5942 8.24907 14.7534L8.11758 15.2724L8.11066 15.2655Z" fill="#FEFEFE"/>
<path fill-rule="evenodd" clip-rule="evenodd" d="M13.8477 15.6115C13.9376 15.2586 14.0899 15.1132 14.4982 15.1686C14.6435 15.3762 14.6435 15.3139 14.6712 15.6115H13.8477ZM13.1141 15.6461L13.0864 16.0198C13.1279 16.6496 13.384 16.9333 13.9584 17.0717C14.1937 17.1271 14.6435 17.1478 14.8581 17.0717C15.1279 16.9817 15.1072 16.7395 15.1279 16.4489C14.6089 16.6219 13.8061 16.7672 13.7439 16.0683L15.0657 16.0544C15.4601 15.9921 15.301 15.224 15.1418 14.9817C14.8442 14.5388 13.5432 14.2274 13.1072 15.6461H13.1141Z" fill="#FEFEFE"/>
<path fill-rule="evenodd" clip-rule="evenodd" d="M17.1421 14.726C17.0176 15.0789 16.9345 15.2104 16.8584 15.6464V16.027L16.976 16.4492C17.2183 16.7744 17.3844 17.0374 17.9311 17.1066C18.72 17.2104 18.8307 17.0443 18.8999 16.373C18.1248 16.7398 17.4051 16.3938 17.6196 15.4734C17.8203 14.6083 18.3601 14.553 19.1837 14.8021L19.2875 14.1654C18.803 14.0685 18.4916 13.9647 18.0003 14.0962C17.4051 14.2623 17.4605 14.4284 17.1421 14.7329V14.726Z" fill="#FEFEFE"/>
<path fill-rule="evenodd" clip-rule="evenodd" d="M11.9032 14.6775C11.225 14.6221 10.4015 14.5321 10.2147 15.1411C9.86863 16.2622 11.1005 15.8055 11.0243 16.5044C10.6714 16.6982 10.4499 16.6083 10.0001 16.5183L9.91016 17.0166C11.5088 17.6048 12.2216 16.2415 11.5572 15.7916C11.2043 15.5564 10.9482 15.757 10.8998 15.2588C11.2942 15.0788 11.3565 15.1826 11.8133 15.1826L11.9102 14.6775H11.9032Z" fill="#FEFEFE"/>
<path fill-rule="evenodd" clip-rule="evenodd" d="M12.6786 15.7292L12.727 15.5631C12.7685 15.0026 12.7547 15.2586 13.1837 15.1548L13.246 14.7465C13.1145 14.6358 13.1215 14.6773 12.8931 14.6773L12.9069 14.5251L12.9623 14.1375C12.1595 14.1237 12.381 13.9299 12.0972 15.5078C11.9173 16.4974 11.5574 17.2379 12.6647 17.1064C13.0384 17.0649 12.9969 16.9472 13.0384 16.6012C12.3256 16.6842 12.5886 16.3105 12.6786 15.7292Z" fill="#FEFEFE"/>
<path fill-rule="evenodd" clip-rule="evenodd" d="M15.9309 16.83L15.9863 16.4494L16.0555 16.0342L16.18 15.619C16.3323 15.2038 16.6783 15.3768 16.789 15.2245L16.9966 14.664C16.5883 14.6501 16.4776 14.8024 16.3115 15.01L16.2769 14.8854C16.2769 14.8785 16.27 14.8577 16.27 14.8439C16.27 14.83 16.2562 14.7747 16.2562 14.7608L15.6402 14.6778L15.2319 17.093L15.8825 17.1207L15.9378 16.83H15.9309Z" fill="#FEFEFE"/>
<path fill-rule="evenodd" clip-rule="evenodd" d="M21.2388 17.107H21.8824C22.0346 16.1727 22 15.4599 22.5675 15.2731L22.8512 15.1623L22.9343 14.671C22.6298 14.6779 22.436 14.8163 22.3322 14.9755L22.2422 14.7194C22.2353 14.7056 22.2353 14.6848 22.2284 14.671L21.654 14.6641L21.2388 17.107Z" fill="#FEFEFE"/>
<path fill-rule="evenodd" clip-rule="evenodd" d="M23.668 16.546C24.4707 16.5322 24.5607 15.3627 24.0763 15.245C23.5849 15.1274 23.1489 16.0132 23.668 16.546Z" fill="#F8B02B"/>
<path fill-rule="evenodd" clip-rule="evenodd" d="M9.21155 15.9718C8.83784 15.9649 8.1112 16.2002 8.49874 16.5531C8.62331 16.6639 8.93473 16.5739 9.03854 16.5047C9.19079 16.394 9.22539 16.2071 9.21847 15.9718H9.21155Z" fill="#E41D2C"/>
<path fill-rule="evenodd" clip-rule="evenodd" d="M15.9863 16.4426L16.9759 16.4495L16.8583 16.0273H16.0555L15.9863 16.4426Z" fill="#E41D2C"/>
<path fill-rule="evenodd" clip-rule="evenodd" d="M19.7582 16.553C20.1942 16.7122 20.5194 16.4631 20.4987 15.9925C20.0834 15.9164 19.6613 16.0963 19.7582 16.553Z" fill="#F8B02B"/>
<path fill-rule="evenodd" clip-rule="evenodd" d="M16.0557 16.0275H16.8584V15.6469L16.1802 15.6123L16.0557 16.0275Z" fill="#F8B02B"/>
<path fill-rule="evenodd" clip-rule="evenodd" d="M13.8481 15.6125H14.6717C14.6509 15.3219 14.644 15.3773 14.4987 15.1696C14.0904 15.1143 13.9381 15.2596 13.8481 15.6125Z" fill="#E41D2C"/>
<path fill-rule="evenodd" clip-rule="evenodd" d="M12.6787 15.7297C12.7964 16.0134 12.6164 15.9096 12.8448 16.0134L13.0939 16.0203L13.1216 15.6466L12.8517 15.6397C12.7133 15.612 12.7894 15.6604 12.7341 15.5566L12.6856 15.7227L12.6787 15.7297Z" fill="#F8B02B"/>
<defs>
<linearGradient id="paint0_linear_271_11406" x1="14.9998" y1="6.00947" x2="14.9998" y2="24.8898" gradientUnits="userSpaceOnUse">
<stop stop-color="#1D4C80"/>
<stop offset="1" stop-color="#173A63"/>
</linearGradient>
</defs>
</svg>
