<svg width="50" height="50" viewBox="0 0 50 50" fill="none" xmlns="http://www.w3.org/2000/svg">
<path d="M29.0598 27.114L25.7136 24.6043V19.492C25.7136 18.978 25.2981 18.5625 24.784 18.5625C24.27 18.5625 23.8545 18.978 23.8545 19.492V25.0691C23.8545 25.3619 23.9921 25.638 24.2263 25.8127L27.9443 28.6013C28.1116 28.7268 28.3069 28.7872 28.5011 28.7872C28.7846 28.7872 29.0635 28.6598 29.2457 28.4145C29.5544 28.0045 29.4707 27.4217 29.0598 27.114Z" fill="url(#paint0_linear_1373_6429)"/>
<path d="M24.7861 13C18.1689 13 12.7861 18.3828 12.7861 25C12.7861 31.6172 18.1689 37 24.7861 37C31.4033 37 36.7861 31.6172 36.7861 25C36.7861 18.3828 31.4033 13 24.7861 13ZM24.7861 35.141C19.1951 35.141 14.6451 30.591 14.6451 25C14.6451 19.409 19.1951 14.859 24.7861 14.859C30.3781 14.859 34.9271 19.409 34.9271 25C34.9271 30.591 30.3771 35.141 24.7861 35.141Z" fill="url(#paint1_linear_1373_6429)"/>
<rect x="0.5" y="0.5" width="49" height="49" rx="11.5" fill="#3DB5B4" fill-opacity="0.5" stroke="url(#paint2_linear_1373_6429)"/>
<defs>
<linearGradient id="paint0_linear_1373_6429" x1="25.2516" y1="17.2772" x2="32.7691" y2="28.3386" gradientUnits="userSpaceOnUse">
<stop stop-color="#23ADA4"/>
<stop offset="1" stop-color="#23ADA4"/>
</linearGradient>
<linearGradient id="paint1_linear_1373_6429" x1="18.7978" y1="9.98309" x2="31.1688" y2="43.3529" gradientUnits="userSpaceOnUse">
<stop stop-color="#23ADA4"/>
<stop offset="1" stop-color="#23ADA4"/>
</linearGradient>
<linearGradient id="paint2_linear_1373_6429" x1="12.5244" y1="-6.28524" x2="38.2972" y2="63.2352" gradientUnits="userSpaceOnUse">
<stop stop-color="#23ADA4"/>
<stop offset="1" stop-color="#23ADA4"/>
</linearGradient>
</defs>
</svg>
