<svg width="24" height="24" viewBox="0 0 24 24" fill="none" xmlns="http://www.w3.org/2000/svg">
<path d="M14.3174 2.01074C14.6525 1.87454 14.9588 1.83755 15.2715 1.93848C15.5957 2.04341 15.8378 2.26922 16.04 2.59277C16.196 2.84229 16.3156 3.12852 16.4248 3.42773L16.5312 3.73047C16.5859 3.89012 16.6644 4.11777 16.748 4.32129C16.7898 4.42284 16.837 4.52886 16.8877 4.62207C16.9287 4.69754 17.006 4.8314 17.125 4.92676L17.1514 4.94727L17.1807 4.96484C17.3036 5.03866 17.4498 5.06668 17.5273 5.08008C17.6274 5.09736 17.7403 5.10956 17.8486 5.11816C18.0663 5.13542 18.3068 5.14189 18.4766 5.14648L18.4795 5.14746C18.9125 5.15688 19.3325 5.16866 19.7109 5.26172C20.0786 5.3522 20.3636 5.50889 20.5586 5.7793L20.5596 5.78223C20.7539 6.0487 20.815 6.36548 20.7881 6.74121C20.7603 7.12759 20.6439 7.52812 20.5215 7.9375L20.5186 7.94727C20.4746 8.1056 20.4058 8.34425 20.3555 8.56055C20.3302 8.66885 20.3066 8.78356 20.293 8.88867C20.2823 8.97102 20.2657 9.12829 20.3066 9.27637L20.3164 9.31055L20.3301 9.34277C20.3855 9.46933 20.4829 9.57472 20.5381 9.63184C20.6074 9.70355 20.6895 9.77747 20.7705 9.84668C20.9279 9.9811 21.1081 10.1177 21.2471 10.2188V10.2197C21.594 10.4907 21.93 10.7513 22.1865 11.0557C22.4352 11.3508 22.5781 11.6519 22.5781 11.9951C22.5781 12.344 22.4337 12.6469 22.1855 12.9424C21.9299 13.2467 21.596 13.5071 21.25 13.7773C21.1133 13.8766 20.9319 14.0126 20.7725 14.1475C20.6911 14.2163 20.6078 14.2906 20.5371 14.3643C20.4797 14.4241 20.3811 14.5329 20.3262 14.666L20.3145 14.6934L20.3066 14.7227C20.2656 14.8708 20.2832 15.0271 20.2939 15.1094C20.3077 15.2139 20.3312 15.3274 20.3564 15.4346C20.4067 15.6477 20.4751 15.8853 20.5186 16.042L20.5215 16.0508C20.6442 16.4656 20.7603 16.8688 20.7881 17.2568C20.815 17.6338 20.7538 17.9505 20.5596 18.2168L20.5586 18.2197C20.3636 18.4901 20.0785 18.6468 19.7109 18.7373C19.3326 18.8304 18.9125 18.8421 18.4795 18.8516L18.4766 18.8525C18.3123 18.857 18.068 18.8615 17.8477 18.8789C17.7374 18.8876 17.6203 18.9007 17.5146 18.9209C17.4298 18.9372 17.2752 18.9705 17.1455 19.0596L17.1318 19.0684L17.1191 19.0791C16.9972 19.1752 16.9203 19.3129 16.8828 19.3828C16.8339 19.4739 16.788 19.578 16.7471 19.6777C16.6651 19.8777 16.586 20.1042 16.5322 20.2568L16.5312 20.2598C16.3907 20.6674 16.2473 21.0672 16.0391 21.4023C15.8362 21.7288 15.5944 21.956 15.2715 22.0605C14.9588 22.1616 14.6525 22.1245 14.3174 21.9883C13.9678 21.8461 13.627 21.6138 13.252 21.3574C13.1051 21.2565 12.8977 21.1152 12.7012 20.9971C12.603 20.9381 12.4984 20.8791 12.3994 20.833C12.3183 20.7952 12.1764 20.7341 12.0254 20.7266L12 20.7246L11.9746 20.7266C11.8237 20.7345 11.6817 20.7974 11.6045 20.834C11.5076 20.8799 11.4038 20.9383 11.3066 20.9971C11.1115 21.1151 10.9048 21.2573 10.7578 21.3584L10.7549 21.3604C10.1447 21.7863 9.61952 22.1191 9.10254 22.1191C9.04296 22.1191 8.98412 22.1153 8.92383 22.1055L8.73633 22.0596C8.41487 21.9546 8.17383 21.7277 7.97168 21.4023C7.76351 21.0672 7.62008 20.6675 7.47949 20.2598L7.47852 20.2568L7.38184 19.9844C7.34498 19.8834 7.30449 19.7758 7.2627 19.6748C7.22101 19.5741 7.17364 19.4688 7.12305 19.376C7.08212 19.3009 7.00465 19.1675 6.88574 19.0723L6.86914 19.0586L6.85059 19.0469L6.75 18.9912C6.64793 18.9456 6.54564 18.9256 6.48633 18.915C6.38363 18.8968 6.26894 18.886 6.16016 18.8779C5.94239 18.8619 5.69884 18.857 5.53418 18.8525L5.53125 18.8516C5.09832 18.8421 4.67821 18.8304 4.2998 18.7373C3.93217 18.6468 3.64718 18.4902 3.45215 18.2197L3.45117 18.2168L3.38379 18.1152C3.2423 17.871 3.19909 17.5867 3.22266 17.2568C3.25045 16.8688 3.36658 16.4655 3.48926 16.0508H3.49023L3.49219 16.042C3.53565 15.8853 3.60498 15.6474 3.65527 15.4326C3.68053 15.3247 3.70412 15.2103 3.71777 15.1045C3.7289 15.0182 3.74406 14.866 3.70605 14.7207L3.69629 14.6826L3.68066 14.6465L3.63184 14.5547C3.57769 14.4683 3.51127 14.3988 3.46973 14.3564C3.39991 14.2853 3.31731 14.2124 3.23633 14.1445C3.07787 14.0117 2.89747 13.8766 2.76074 13.7773H2.76172C2.41122 13.5073 2.07333 13.2461 1.81641 12.9414C1.56756 12.6463 1.42386 12.3438 1.42383 11.9951C1.42383 11.6515 1.56698 11.3485 1.81641 11.0527C2.07261 10.7489 2.41068 10.4873 2.75781 10.2246L2.75879 10.2236C2.8919 10.1227 3.07692 9.98127 3.23828 9.84473C3.31872 9.77666 3.40119 9.7038 3.4707 9.63281C3.52578 9.57656 3.62446 9.47103 3.68066 9.34277L3.69531 9.31055L3.7041 9.27637C3.74509 9.12829 3.72845 8.97102 3.71777 8.88867C3.70413 8.78357 3.68049 8.66884 3.65527 8.56055C3.6049 8.34427 3.53612 8.10559 3.49219 7.94727L3.49023 7.94043L3.39746 7.62012C3.30957 7.30601 3.23976 7.01001 3.21973 6.72461C3.19411 6.3593 3.25458 6.05181 3.45117 5.78223L3.45215 5.7793C3.64718 5.50882 3.93216 5.35221 4.2998 5.26172C4.67821 5.16862 5.09831 5.15688 5.53125 5.14746L5.53418 5.14648C5.70392 5.14189 5.94571 5.13482 6.16602 5.11621C6.2758 5.10693 6.39113 5.09437 6.49414 5.0752C6.5772 5.05972 6.72374 5.02871 6.84766 4.95117L6.87988 4.93066L6.9082 4.90625C7.01759 4.81225 7.09013 4.68407 7.12891 4.61133C7.17713 4.52087 7.22274 4.41756 7.26367 4.31836C7.34572 4.1195 7.42412 3.8965 7.47852 3.74219C7.62491 3.32676 7.76801 2.92752 7.97559 2.59277C8.17689 2.26815 8.41612 2.04309 8.73926 1.93848L8.74023 1.9375C9.04709 1.83736 9.3536 1.87471 9.69141 2.01172C9.95435 2.11843 10.213 2.27542 10.4834 2.45508L10.7588 2.6416L10.7666 2.64648C10.9029 2.73599 11.1151 2.88113 11.3066 2.99707C11.4033 3.0556 11.5077 3.11503 11.6064 3.16113C11.6826 3.19665 11.836 3.26465 12.001 3.26465C12.1649 3.26459 12.317 3.19902 12.3975 3.16211C12.4981 3.11592 12.6036 3.05669 12.7012 2.99805C12.8946 2.88169 13.1078 2.7359 13.2441 2.64648L13.252 2.6416C13.627 2.38525 13.9678 2.15294 14.3174 2.01074ZM15.7891 9.08984C15.2332 8.534 14.3322 8.534 13.7764 9.08984L10.9775 11.8877L10.2354 11.1455C9.67954 10.5897 8.7785 10.5898 8.22266 11.1455C7.66682 11.7013 7.66682 12.6024 8.22266 13.1582L9.97168 14.9072C10.5274 15.4626 11.4277 15.4625 11.9834 14.9072L15.7891 11.1016C16.3445 10.5458 16.3445 9.64562 15.7891 9.08984Z" stroke="url(#paint0_linear_2082_7988)"/>
<defs>
<linearGradient id="paint0_linear_2082_7988" x1="6.47309" y1="-1.28895" x2="17.0722" y2="28.5331" gradientUnits="userSpaceOnUse">
<stop stop-color="#23ADA4"/>
<stop offset="1" stop-color="#23ADA4"/>
</linearGradient>
</defs>
</svg>
