<svg width="50" height="50" viewBox="0 0 50 50" fill="none" xmlns="http://www.w3.org/2000/svg">
<g clip-path="url(#clip0_1594_22)">
<mask id="mask0_1594_22" style="mask-type:luminance" maskUnits="userSpaceOnUse" x="0" y="0" width="50" height="50">
<path d="M50 0H0V50H50V0Z" fill="white"/>
</mask>
<g mask="url(#mask0_1594_22)">
<path d="M25 50C38.8071 50 50 38.8071 50 25C50 11.1929 38.8071 0 25 0C11.1929 0 0 11.1929 0 25C0 38.8071 11.1929 50 25 50Z" fill="white"/>
<path d="M25 49.5C38.531 49.5 49.5 38.531 49.5 25C49.5 11.469 38.531 0.5 25 0.5C11.469 0.5 0.5 11.469 0.5 25C0.5 38.531 11.469 49.5 25 49.5Z" stroke="#DCDCDC"/>
<path d="M32.6001 16H17.3999C14.4176 16 12 18.4967 12 21.5764V29.4235C12 32.5033 14.4176 35 17.3999 35H32.6001C35.5824 35 38 32.5033 38 29.4235V21.5764C38 18.4967 35.5824 16 32.6001 16ZM28.9482 25.8817L21.8386 29.3836C21.6491 29.4768 21.4303 29.3342 21.4303 29.1175V21.8951C21.4303 21.6753 21.6549 21.5328 21.8448 21.6322L28.9544 25.3528C29.1658 25.4634 29.1621 25.7765 28.9482 25.8817Z" fill="#F61C0D"/>
</g>
</g>
<defs>
<clipPath id="clip0_1594_22">
<rect width="50" height="50" fill="white"/>
</clipPath>
</defs>
</svg>
